<?xml version="1.0" encoding="UTF-8" standalone="no"?>
<!DOCTYPE svg PUBLIC "-//W3C//DTD SVG 1.1//EN"
 "http://www.w3.org/Graphics/SVG/1.1/DTD/svg11.dtd">
<!-- Generated by graphviz version 2.43.0 (0)
 -->
<!-- Title: test Pages: 1 -->
<svg width="1860pt" height="1337pt"
 viewBox="0.00 0.00 1859.50 1337.00" xmlns="http://www.w3.org/2000/svg" xmlns:xlink="http://www.w3.org/1999/xlink">
<g id="graph0" class="graph" transform="scale(1 1) rotate(0) translate(4 1333)">
<title>test</title>
<polygon fill="white" stroke="transparent" points="-4,4 -4,-1333 1855.5,-1333 1855.5,4 -4,4"/>
<g id="clust1" class="cluster">
<title>cluster_views</title>
<polygon fill="none" stroke="black" points="8,-8 8,-485 1238,-485 1238,-8 8,-8"/>
<text text-anchor="middle" x="623" y="-469.8" font-family="Times,serif" font-size="14.00">views</text>
</g>
<!-- node1 -->
<g id="node1" class="node">
<title>node1</title>
<polygon fill="white" stroke="black" points="584,-1252.5 584,-1328.5 772,-1328.5 772,-1252.5 584,-1252.5"/>
<text text-anchor="middle" x="678" y="-1313.3" font-family="Times,serif" font-size="14.00">datasets</text>
<polyline fill="none" stroke="black" points="584,-1305.5 772,-1305.5 "/>
<text text-anchor="start" x="592" y="-1290.3" font-family="Times,serif" font-size="14.00">&#45; dataset_id smallint [U]</text>
<text text-anchor="start" x="592" y="-1275.3" font-family="Times,serif" font-size="14.00">&#45; dataset_slug text [U]</text>
<text text-anchor="start" x="592" y="-1260.3" font-family="Times,serif" font-size="14.00">&#45; dataset_meta jsonb</text>
</g>
<!-- node8 -->
<g id="node8" class="node">
<title>node8</title>
<polygon fill="white" stroke="black" points="549.5,-861.5 549.5,-937.5 762.5,-937.5 762.5,-861.5 549.5,-861.5"/>
<text text-anchor="middle" x="656" y="-922.3" font-family="Times,serif" font-size="14.00">datasets_pieces</text>
<polyline fill="none" stroke="black" points="549.5,-914.5 762.5,-914.5 "/>
<text text-anchor="start" x="557.5" y="-899.3" font-family="Times,serif" font-size="14.00">&#45; piece_id bigint [FK,U]</text>
<text text-anchor="start" x="557.5" y="-884.3" font-family="Times,serif" font-size="14.00">&#45; dataset_id smallint [FK,U]</text>
<text text-anchor="start" x="557.5" y="-869.3" font-family="Times,serif" font-size="14.00">&#45; dataset_piece_meta jsonb</text>
</g>
<!-- node1&#45;&gt;node8 -->
<g id="edge3" class="edge">
<title>node1&#45;&gt;node8</title>
<path fill="none" stroke="black" d="M646.56,-1252.47C638.99,-1241.43 631.95,-1228.83 628,-1216 599.66,-1123.96 623.2,-1010.2 640.9,-947.51"/>
<polygon fill="black" stroke="black" points="644.26,-948.47 643.68,-937.89 637.54,-946.53 644.26,-948.47"/>
</g>
<!-- node9 -->
<g id="node9" class="node">
<title>node9</title>
<polygon fill="white" stroke="black" points="637,-1102 637,-1178 855,-1178 855,-1102 637,-1102"/>
<text text-anchor="middle" x="746" y="-1162.8" font-family="Times,serif" font-size="14.00">tenants_datasets</text>
<polyline fill="none" stroke="black" points="637,-1155 855,-1155 "/>
<text text-anchor="start" x="645" y="-1139.8" font-family="Times,serif" font-size="14.00">&#45; tenant_id smallint [FK,U]</text>
<text text-anchor="start" x="645" y="-1124.8" font-family="Times,serif" font-size="14.00">&#45; dataset_id smallint [FK,U]</text>
<text text-anchor="start" x="645" y="-1109.8" font-family="Times,serif" font-size="14.00">&#45; tenant_dataset_meta jsonb</text>
</g>
<!-- node1&#45;&gt;node9 -->
<g id="edge4" class="edge">
<title>node1&#45;&gt;node9</title>
<path fill="none" stroke="black" d="M694.98,-1252.41C703.99,-1232.74 715.14,-1208.39 724.72,-1187.47"/>
<polygon fill="black" stroke="black" points="728.02,-1188.68 729,-1178.13 721.65,-1185.77 728.02,-1188.68"/>
</g>
<!-- node2 -->
<g id="node2" class="node">
<title>node2</title>
<polygon fill="white" stroke="black" points="1327,-1260 1327,-1321 1539,-1321 1539,-1260 1327,-1260"/>
<text text-anchor="middle" x="1433" y="-1305.8" font-family="Times,serif" font-size="14.00">global</text>
<polyline fill="none" stroke="black" points="1327,-1298 1539,-1298 "/>
<text text-anchor="start" x="1335" y="-1282.8" font-family="Times,serif" font-size="14.00">&#45; singleton_row boolean [U]</text>
<text text-anchor="start" x="1335" y="-1267.8" font-family="Times,serif" font-size="14.00">&#45; metadata jsonb</text>
</g>
<!-- node3 -->
<g id="node3" class="node">
<title>node3</title>
<polygon fill="white" stroke="black" points="873,-1087 873,-1193 1097,-1193 1097,-1087 873,-1087"/>
<text text-anchor="middle" x="985" y="-1177.8" font-family="Times,serif" font-size="14.00">pieces</text>
<polyline fill="none" stroke="black" points="873,-1170 1097,-1170 "/>
<text text-anchor="start" x="881" y="-1154.8" font-family="Times,serif" font-size="14.00">&#45; piece_id bigint [U]</text>
<text text-anchor="start" x="881" y="-1139.8" font-family="Times,serif" font-size="14.00">&#45; piece_cid text [U]</text>
<text text-anchor="start" x="881" y="-1124.8" font-family="Times,serif" font-size="14.00">&#45; piece_log2_size smallint [U]</text>
<text text-anchor="start" x="881" y="-1109.8" font-family="Times,serif" font-size="14.00">&#45; proposal_label text [N]</text>
<text text-anchor="start" x="881" y="-1094.8" font-family="Times,serif" font-size="14.00">&#45; piece_meta jsonb</text>
</g>
<!-- node3&#45;&gt;node8 -->
<g id="edge14" class="edge">
<title>node3&#45;&gt;node8</title>
<path fill="none" stroke="black" d="M903.84,-1086.93C876.27,-1068.75 845.49,-1047.91 818,-1028 781.01,-1001.22 740.65,-969.46 709.46,-944.34"/>
<polygon fill="black" stroke="black" points="711.31,-941.33 701.33,-937.77 706.91,-946.78 711.31,-941.33"/>
</g>
<!-- node11 -->
<g id="node11" class="node">
<title>node11</title>
<polygon fill="white" stroke="black" points="827,-771.5 827,-1027.5 1143,-1027.5 1143,-771.5 827,-771.5"/>
<text text-anchor="middle" x="985" y="-1012.3" font-family="Times,serif" font-size="14.00">published_deals</text>
<polyline fill="none" stroke="black" points="827,-1004.5 1143,-1004.5 "/>
<text text-anchor="start" x="835" y="-989.3" font-family="Times,serif" font-size="14.00">&#45; deal_id bigint [U]</text>
<text text-anchor="start" x="835" y="-974.3" font-family="Times,serif" font-size="14.00">&#45; piece_id bigint [FK]</text>
<text text-anchor="start" x="835" y="-959.3" font-family="Times,serif" font-size="14.00">&#45; piece_cid text [FK]</text>
<text text-anchor="start" x="835" y="-944.3" font-family="Times,serif" font-size="14.00">&#45; piece_log2_size smallint [FK]</text>
<text text-anchor="start" x="835" y="-929.3" font-family="Times,serif" font-size="14.00">&#45; provider_id integer [FK]</text>
<text text-anchor="start" x="835" y="-914.3" font-family="Times,serif" font-size="14.00">&#45; client_id integer [FK]</text>
<text text-anchor="start" x="835" y="-899.3" font-family="Times,serif" font-size="14.00">&#45; label bytea</text>
<text text-anchor="start" x="835" y="-884.3" font-family="Times,serif" font-size="14.00">&#45; decoded_label text [N]</text>
<text text-anchor="start" x="835" y="-869.3" font-family="Times,serif" font-size="14.00">&#45; is_filplus boolean</text>
<text text-anchor="start" x="835" y="-854.3" font-family="Times,serif" font-size="14.00">&#45; status text</text>
<text text-anchor="start" x="835" y="-839.3" font-family="Times,serif" font-size="14.00">&#45; published_deal_meta jsonb</text>
<text text-anchor="start" x="835" y="-824.3" font-family="Times,serif" font-size="14.00">&#45; start_epoch integer</text>
<text text-anchor="start" x="835" y="-809.3" font-family="Times,serif" font-size="14.00">&#45; end_epoch integer</text>
<text text-anchor="start" x="835" y="-794.3" font-family="Times,serif" font-size="14.00">&#45; sector_start_epoch integer [N]</text>
<text text-anchor="start" x="835" y="-779.3" font-family="Times,serif" font-size="14.00">&#45; entry_created timestamp with time zone</text>
</g>
<!-- node3&#45;&gt;node11 -->
<g id="edge16" class="edge">
<title>node3&#45;&gt;node11</title>
<path fill="none" stroke="black" d="M985,-1086.95C985,-1072.17 985,-1055.35 985,-1038"/>
<polygon fill="black" stroke="black" points="988.5,-1037.73 985,-1027.73 981.5,-1037.73 988.5,-1037.73"/>
</g>
<!-- node14 -->
<g id="node13" class="node">
<title>node14</title>
<polygon fill="white" stroke="black" points="1073.5,-493.5 1073.5,-734.5 1454.5,-734.5 1454.5,-493.5 1073.5,-493.5"/>
<text text-anchor="middle" x="1264" y="-719.3" font-family="Times,serif" font-size="14.00">proposals</text>
<polyline fill="none" stroke="black" points="1073.5,-711.5 1454.5,-711.5 "/>
<text text-anchor="start" x="1081.5" y="-696.3" font-family="Times,serif" font-size="14.00">&#45; proposal_uuid uuid [U]</text>
<text text-anchor="start" x="1081.5" y="-681.3" font-family="Times,serif" font-size="14.00">&#45; piece_id bigint [FK,U]</text>
<text text-anchor="start" x="1081.5" y="-666.3" font-family="Times,serif" font-size="14.00">&#45; entry_created timestamp with time zone</text>
<text text-anchor="start" x="1081.5" y="-651.3" font-family="Times,serif" font-size="14.00">&#45; signature_obtained timestamp with time zone [N]</text>
<text text-anchor="start" x="1081.5" y="-636.3" font-family="Times,serif" font-size="14.00">&#45; proposal_delivered timestamp with time zone [N]</text>
<text text-anchor="start" x="1081.5" y="-621.3" font-family="Times,serif" font-size="14.00">&#45; activated_deal_id bigint [FK,U,N]</text>
<text text-anchor="start" x="1081.5" y="-606.3" font-family="Times,serif" font-size="14.00">&#45; proposal_failstamp bigint [U]</text>
<text text-anchor="start" x="1081.5" y="-591.3" font-family="Times,serif" font-size="14.00">&#45; entry_last_updated timestamp with time zone</text>
<text text-anchor="start" x="1081.5" y="-576.3" font-family="Times,serif" font-size="14.00">&#45; provider_id integer [FK,U]</text>
<text text-anchor="start" x="1081.5" y="-561.3" font-family="Times,serif" font-size="14.00">&#45; client_id integer [FK]</text>
<text text-anchor="start" x="1081.5" y="-546.3" font-family="Times,serif" font-size="14.00">&#45; start_epoch integer</text>
<text text-anchor="start" x="1081.5" y="-531.3" font-family="Times,serif" font-size="14.00">&#45; end_epoch integer</text>
<text text-anchor="start" x="1081.5" y="-516.3" font-family="Times,serif" font-size="14.00">&#45; piece_log2_size smallint [FK]</text>
<text text-anchor="start" x="1081.5" y="-501.3" font-family="Times,serif" font-size="14.00">&#45; proposal_meta jsonb</text>
</g>
<!-- node3&#45;&gt;node14 -->
<g id="edge15" class="edge">
<title>node3&#45;&gt;node14</title>
<path fill="none" stroke="black" d="M1068.79,-1086.98C1107.26,-1062.44 1145.77,-1036.65 1152,-1028 1154.17,-1024.99 1197.31,-864.65 1229.41,-744.67"/>
<polygon fill="black" stroke="black" points="1232.88,-745.22 1232.09,-734.66 1226.12,-743.41 1232.88,-745.22"/>
</g>
<!-- node4 -->
<g id="node4" class="node">
<title>node4</title>
<polygon fill="white" stroke="black" points="1339,-1064.5 1339,-1215.5 1577,-1215.5 1577,-1064.5 1339,-1064.5"/>
<text text-anchor="middle" x="1458" y="-1200.3" font-family="Times,serif" font-size="14.00">providers</text>
<polyline fill="none" stroke="black" points="1339,-1192.5 1577,-1192.5 "/>
<text text-anchor="start" x="1347" y="-1177.3" font-family="Times,serif" font-size="14.00">&#45; provider_id integer [U]</text>
<text text-anchor="start" x="1347" y="-1162.3" font-family="Times,serif" font-size="14.00">&#45; org_id smallint</text>
<text text-anchor="start" x="1347" y="-1147.3" font-family="Times,serif" font-size="14.00">&#45; city_id smallint</text>
<text text-anchor="start" x="1347" y="-1132.3" font-family="Times,serif" font-size="14.00">&#45; country_id smallint</text>
<text text-anchor="start" x="1347" y="-1117.3" font-family="Times,serif" font-size="14.00">&#45; continent_id smallint</text>
<text text-anchor="start" x="1347" y="-1102.3" font-family="Times,serif" font-size="14.00">&#45; sector_log2_size smallint</text>
<text text-anchor="start" x="1347" y="-1087.3" font-family="Times,serif" font-size="14.00">&#45; can_seal_64g_sectors boolean</text>
<text text-anchor="start" x="1347" y="-1072.3" font-family="Times,serif" font-size="14.00">&#45; provider_meta jsonb</text>
</g>
<!-- node7 -->
<g id="node7" class="node">
<title>node7</title>
<polygon fill="white" stroke="black" points="1292,-846.5 1292,-952.5 1608,-952.5 1608,-846.5 1292,-846.5"/>
<text text-anchor="middle" x="1450" y="-937.3" font-family="Times,serif" font-size="14.00">requests</text>
<polyline fill="none" stroke="black" points="1292,-929.5 1608,-929.5 "/>
<text text-anchor="start" x="1300" y="-914.3" font-family="Times,serif" font-size="14.00">&#45; provider_id integer [FK]</text>
<text text-anchor="start" x="1300" y="-899.3" font-family="Times,serif" font-size="14.00">&#45; request_uuid uuid [U]</text>
<text text-anchor="start" x="1300" y="-884.3" font-family="Times,serif" font-size="14.00">&#45; entry_created timestamp with time zone</text>
<text text-anchor="start" x="1300" y="-869.3" font-family="Times,serif" font-size="14.00">&#45; request_dump jsonb</text>
<text text-anchor="start" x="1300" y="-854.3" font-family="Times,serif" font-size="14.00">&#45; request_meta jsonb</text>
</g>
<!-- node4&#45;&gt;node7 -->
<g id="edge20" class="edge">
<title>node4&#45;&gt;node7</title>
<path fill="none" stroke="black" d="M1455.49,-1064.19C1454.4,-1031.67 1453.14,-993.99 1452.1,-963"/>
<polygon fill="black" stroke="black" points="1455.59,-962.63 1451.75,-952.76 1448.59,-962.87 1455.59,-962.63"/>
</g>
<!-- node10 -->
<g id="node10" class="node">
<title>node10</title>
<polygon fill="white" stroke="black" points="1626.5,-861.5 1626.5,-937.5 1851.5,-937.5 1851.5,-861.5 1626.5,-861.5"/>
<text text-anchor="middle" x="1739" y="-922.3" font-family="Times,serif" font-size="14.00">tenants_providers</text>
<polyline fill="none" stroke="black" points="1626.5,-914.5 1851.5,-914.5 "/>
<text text-anchor="start" x="1634.5" y="-899.3" font-family="Times,serif" font-size="14.00">&#45; provider_id integer [FK,U]</text>
<text text-anchor="start" x="1634.5" y="-884.3" font-family="Times,serif" font-size="14.00">&#45; tenant_id smallint [FK,U]</text>
<text text-anchor="start" x="1634.5" y="-869.3" font-family="Times,serif" font-size="14.00">&#45; tenant_provider_meta jsonb</text>
</g>
<!-- node4&#45;&gt;node10 -->
<g id="edge21" class="edge">
<title>node4&#45;&gt;node10</title>
<path fill="none" stroke="black" d="M1570.87,-1064.38C1586.74,-1052.7 1602.56,-1040.38 1617,-1028 1646.73,-1002.53 1677.17,-970.72 1700.22,-945.24"/>
<polygon fill="black" stroke="black" points="1703.04,-947.33 1707.12,-937.56 1697.83,-942.66 1703.04,-947.33"/>
</g>
<!-- node4&#45;&gt;node11 -->
<g id="edge19" class="edge">
<title>node4&#45;&gt;node11</title>
<path fill="none" stroke="black" d="M1339,-1068.71C1335.98,-1067.11 1332.98,-1065.54 1330,-1064 1295.35,-1046.12 1285.35,-1044.45 1250,-1028 1218.27,-1013.23 1184.53,-997.23 1152.13,-981.71"/>
<polygon fill="black" stroke="black" points="1153.56,-978.52 1143.03,-977.35 1150.54,-984.83 1153.56,-978.52"/>
</g>
<!-- node4&#45;&gt;node14 -->
<g id="edge18" class="edge">
<title>node4&#45;&gt;node14</title>
<path fill="none" stroke="black" d="M1338.74,-1068.93C1310.41,-1051.15 1287.11,-1035.08 1283,-1028 1255.98,-981.44 1254.1,-847.64 1257.18,-744.83"/>
<polygon fill="black" stroke="black" points="1260.68,-744.77 1257.5,-734.66 1253.69,-744.55 1260.68,-744.77"/>
</g>
<!-- node5 -->
<g id="node5" class="node">
<title>node5</title>
<polygon fill="white" stroke="black" points="1127,-1252.5 1127,-1328.5 1309,-1328.5 1309,-1252.5 1127,-1252.5"/>
<text text-anchor="middle" x="1218" y="-1313.3" font-family="Times,serif" font-size="14.00">tenants</text>
<polyline fill="none" stroke="black" points="1127,-1305.5 1309,-1305.5 "/>
<text text-anchor="start" x="1135" y="-1290.3" font-family="Times,serif" font-size="14.00">&#45; tenant_id smallint [U]</text>
<text text-anchor="start" x="1135" y="-1275.3" font-family="Times,serif" font-size="14.00">&#45; tenant_name text [U]</text>
<text text-anchor="start" x="1135" y="-1260.3" font-family="Times,serif" font-size="14.00">&#45; tenant_meta jsonb</text>
</g>
<!-- node6 -->
<g id="node6" class="node">
<title>node6</title>
<polygon fill="white" stroke="black" points="1115,-1094.5 1115,-1185.5 1321,-1185.5 1321,-1094.5 1115,-1094.5"/>
<text text-anchor="middle" x="1218" y="-1170.3" font-family="Times,serif" font-size="14.00">clients</text>
<polyline fill="none" stroke="black" points="1115,-1162.5 1321,-1162.5 "/>
<text text-anchor="start" x="1123" y="-1147.3" font-family="Times,serif" font-size="14.00">&#45; client_id integer [U]</text>
<text text-anchor="start" x="1123" y="-1132.3" font-family="Times,serif" font-size="14.00">&#45; tenant_id smallint [FK,N]</text>
<text text-anchor="start" x="1123" y="-1117.3" font-family="Times,serif" font-size="14.00">&#45; client_address text [U,N]</text>
<text text-anchor="start" x="1123" y="-1102.3" font-family="Times,serif" font-size="14.00">&#45; client_meta jsonb</text>
</g>
<!-- node5&#45;&gt;node6 -->
<g id="edge26" class="edge">
<title>node5&#45;&gt;node6</title>
<path fill="none" stroke="black" d="M1218,-1252.41C1218,-1235.3 1218,-1214.65 1218,-1195.8"/>
<polygon fill="none" stroke="black" points="1221.5,-1195.55 1218,-1185.55 1214.5,-1195.55 1221.5,-1195.55"/>
</g>
<!-- node5&#45;&gt;node9 -->
<g id="edge27" class="edge">
<title>node5&#45;&gt;node9</title>
<path fill="none" stroke="black" d="M1126.99,-1279.79C1053.89,-1269.84 949.65,-1250.75 864,-1216 843.42,-1207.65 822.47,-1195.68 804.05,-1183.76"/>
<polygon fill="black" stroke="black" points="805.78,-1180.7 795.5,-1178.11 801.92,-1186.54 805.78,-1180.7"/>
</g>
<!-- node5&#45;&gt;node10 -->
<g id="edge28" class="edge">
<title>node5&#45;&gt;node10</title>
<path fill="none" stroke="black" d="M1309.02,-1254.4C1312.03,-1253.55 1315.03,-1252.75 1318,-1252 1434.56,-1222.72 1488.64,-1286.45 1586,-1216 1675.9,-1150.95 1715.35,-1018.57 1730.61,-947.73"/>
<polygon fill="black" stroke="black" points="1734.08,-948.25 1732.69,-937.74 1727.22,-946.82 1734.08,-948.25"/>
</g>
<!-- node6&#45;&gt;node11 -->
<g id="edge2" class="edge">
<title>node6&#45;&gt;node11</title>
<path fill="none" stroke="black" d="M1174.45,-1094.42C1157.58,-1077.16 1137.31,-1056.4 1116.38,-1034.98"/>
<polygon fill="black" stroke="black" points="1118.76,-1032.41 1109.26,-1027.7 1113.75,-1037.3 1118.76,-1032.41"/>
</g>
<!-- node6&#45;&gt;node14 -->
<g id="edge1" class="edge">
<title>node6&#45;&gt;node14</title>
<path fill="none" stroke="black" d="M1221.85,-1094.24C1227.82,-1024.97 1239.7,-887.58 1250,-771 1250.76,-762.44 1251.54,-753.61 1252.33,-744.72"/>
<polygon fill="black" stroke="black" points="1255.83,-744.93 1253.23,-734.66 1248.85,-744.31 1255.83,-744.93"/>
</g>
<!-- node12 -->
<g id="node12" class="node">
<title>node12</title>
<polygon fill="white" stroke="black" points="860.5,-583.5 860.5,-644.5 1055.5,-644.5 1055.5,-583.5 860.5,-583.5"/>
<text text-anchor="middle" x="958" y="-629.3" font-family="Times,serif" font-size="14.00">invalidated_deals</text>
<polyline fill="none" stroke="black" points="860.5,-621.5 1055.5,-621.5 "/>
<text text-anchor="start" x="868.5" y="-606.3" font-family="Times,serif" font-size="14.00">&#45; deal_id bigint [FK,U]</text>
<text text-anchor="start" x="868.5" y="-591.3" font-family="Times,serif" font-size="14.00">&#45; invalidation_meta jsonb</text>
</g>
<!-- node11&#45;&gt;node12 -->
<g id="edge22" class="edge">
<title>node11&#45;&gt;node12</title>
<path fill="none" stroke="black" d="M972.88,-771.26C968.87,-729.13 964.69,-685.26 961.79,-654.77"/>
<polygon fill="black" stroke="black" points="965.25,-654.19 960.82,-644.57 958.28,-654.86 965.25,-654.19"/>
</g>
<!-- node11&#45;&gt;node14 -->
<g id="edge25" class="edge">
<title>node11&#45;&gt;node14</title>
<path fill="none" stroke="black" d="M1110.22,-771.26C1119.89,-761.43 1129.66,-751.51 1139.33,-741.68"/>
<polygon fill="none" stroke="black" points="1141.84,-744.12 1146.36,-734.54 1136.85,-739.21 1141.84,-744.12"/>
</g>
<!-- node15 -->
<g id="node14" class="node">
<title>node15</title>
<polygon fill="white" stroke="black" points="966.5,-317.5 966.5,-408.5 1229.5,-408.5 1229.5,-317.5 966.5,-317.5"/>
<text text-anchor="middle" x="1098" y="-393.3" font-family="Times,serif" font-size="14.00">mv_deals_prefiltered_for_repcount</text>
<polyline fill="none" stroke="black" points="966.5,-385.5 1229.5,-385.5 "/>
<text text-anchor="start" x="974.5" y="-370.3" font-family="Times,serif" font-size="14.00">&#45; piece_id bigint [U]</text>
<text text-anchor="start" x="974.5" y="-355.3" font-family="Times,serif" font-size="14.00">&#45; provider_id integer [U]</text>
<text text-anchor="start" x="974.5" y="-340.3" font-family="Times,serif" font-size="14.00">&#45; is_filplus boolean [U]</text>
<text text-anchor="start" x="974.5" y="-325.3" font-family="Times,serif" font-size="14.00">&#45; claimant_id integer [U]</text>
</g>
<!-- node11&#45;&gt;node15 -->
<g id="edge23" class="edge">
<title>node11&#45;&gt;node15</title>
<path fill="none" stroke="black" d="M868.06,-771.36C861.29,-759.62 855.45,-747.44 851,-735 832.9,-684.36 814.43,-532.43 851,-493 867.06,-475.68 935.17,-494.03 957,-485 993.49,-469.9 1027.32,-441.58 1052.7,-416.13"/>
<polygon fill="black" stroke="black" points="1055.48,-418.29 1059.96,-408.69 1050.47,-413.4 1055.48,-418.29"/>
</g>
<!-- node13 -->
<g id="node24" class="node">
<title>node13</title>
<polygon fill="white" stroke="black" points="641.5,-272.5 641.5,-453.5 948.5,-453.5 948.5,-272.5 641.5,-272.5"/>
<text text-anchor="middle" x="795" y="-438.3" font-family="Times,serif" font-size="14.00">mv_pieces_availability</text>
<polyline fill="none" stroke="black" points="641.5,-430.5 948.5,-430.5 "/>
<text text-anchor="start" x="649.5" y="-415.3" font-family="Times,serif" font-size="14.00">&#45; display_sort bigint</text>
<text text-anchor="start" x="649.5" y="-400.3" font-family="Times,serif" font-size="14.00">&#45; piece_id bigint [U]</text>
<text text-anchor="start" x="649.5" y="-385.3" font-family="Times,serif" font-size="14.00">&#45; coarse_latest_active_end_epoch integer</text>
<text text-anchor="start" x="649.5" y="-370.3" font-family="Times,serif" font-size="14.00">&#45; piece_log2_size smallint</text>
<text text-anchor="start" x="649.5" y="-355.3" font-family="Times,serif" font-size="14.00">&#45; requires_64g_sector boolean</text>
<text text-anchor="start" x="649.5" y="-340.3" font-family="Times,serif" font-size="14.00">&#45; http_available boolean</text>
<text text-anchor="start" x="649.5" y="-325.3" font-family="Times,serif" font-size="14.00">&#45; piece_cid text</text>
<text text-anchor="start" x="649.5" y="-310.3" font-family="Times,serif" font-size="14.00">&#45; proposal_label text</text>
<text text-anchor="start" x="649.5" y="-295.3" font-family="Times,serif" font-size="14.00">&#45; potential_tenant_ids smallint[]</text>
<text text-anchor="start" x="649.5" y="-280.3" font-family="Times,serif" font-size="14.00">&#45; has_sources boolean</text>
</g>
<!-- node11&#45;&gt;node13 -->
<g id="edge24" class="edge">
<title>node11&#45;&gt;node13</title>
<path fill="none" stroke="black" d="M846.77,-771.28C838.79,-759.66 831.7,-747.52 826,-735 787.03,-649.44 782.34,-541.32 785.55,-463.91"/>
<polygon fill="black" stroke="black" points="789.06,-463.83 786.03,-453.67 782.07,-463.5 789.06,-463.83"/>
</g>
<!-- node14&#45;&gt;node15 -->
<g id="edge17" class="edge">
<title>node14&#45;&gt;node15</title>
<path fill="none" stroke="black" d="M1184.16,-493.24C1166.34,-466.51 1148.32,-439.48 1133.4,-417.1"/>
<polygon fill="black" stroke="black" points="1136.3,-415.14 1127.84,-408.76 1130.48,-419.02 1136.3,-415.14"/>
</g>
<!-- node16 -->
<g id="node15" class="node">
<title>node16</title>
<polygon fill="white" stroke="black" points="277,-129.5 277,-235.5 471,-235.5 471,-129.5 277,-129.5"/>
<text text-anchor="middle" x="374" y="-220.3" font-family="Times,serif" font-size="14.00">mv_replicas_city</text>
<polyline fill="none" stroke="black" points="277,-212.5 471,-212.5 "/>
<text text-anchor="start" x="285" y="-197.3" font-family="Times,serif" font-size="14.00">&#45; piece_id bigint [U]</text>
<text text-anchor="start" x="285" y="-182.3" font-family="Times,serif" font-size="14.00">&#45; claimant_id integer [U]</text>
<text text-anchor="start" x="285" y="-167.3" font-family="Times,serif" font-size="14.00">&#45; city_id smallint [U]</text>
<text text-anchor="start" x="285" y="-152.3" font-family="Times,serif" font-size="14.00">&#45; replicas_filplus smallint</text>
<text text-anchor="start" x="285" y="-137.3" font-family="Times,serif" font-size="14.00">&#45; replicas_any smallint</text>
</g>
<!-- node15&#45;&gt;node16 -->
<g id="edge5" class="edge">
<title>node15&#45;&gt;node16</title>
<path fill="none" stroke="black" d="M1041.51,-317.3C1016.91,-300.21 986.91,-282.36 957,-272 803.38,-218.81 753.31,-263.01 593,-236 556.26,-229.81 516.53,-220.95 481.12,-212.27"/>
<polygon fill="black" stroke="black" points="481.81,-208.84 471.26,-209.83 480.12,-215.63 481.81,-208.84"/>
</g>
<!-- node17 -->
<g id="node16" class="node">
<title>node17</title>
<polygon fill="white" stroke="black" points="602.5,-129.5 602.5,-235.5 805.5,-235.5 805.5,-129.5 602.5,-129.5"/>
<text text-anchor="middle" x="704" y="-220.3" font-family="Times,serif" font-size="14.00">mv_replicas_continent</text>
<polyline fill="none" stroke="black" points="602.5,-212.5 805.5,-212.5 "/>
<text text-anchor="start" x="610.5" y="-197.3" font-family="Times,serif" font-size="14.00">&#45; piece_id bigint [U]</text>
<text text-anchor="start" x="610.5" y="-182.3" font-family="Times,serif" font-size="14.00">&#45; claimant_id integer [U]</text>
<text text-anchor="start" x="610.5" y="-167.3" font-family="Times,serif" font-size="14.00">&#45; continent_id smallint [U]</text>
<text text-anchor="start" x="610.5" y="-152.3" font-family="Times,serif" font-size="14.00">&#45; replicas_filplus smallint</text>
<text text-anchor="start" x="610.5" y="-137.3" font-family="Times,serif" font-size="14.00">&#45; replicas_any smallint</text>
</g>
<!-- node15&#45;&gt;node17 -->
<g id="edge6" class="edge">
<title>node15&#45;&gt;node17</title>
<path fill="none" stroke="black" d="M1037.57,-317.4C1013.46,-301.26 984.85,-284.05 957,-272 897.24,-246.16 876.27,-258.02 815,-236 814.9,-235.97 814.81,-235.93 814.71,-235.9"/>
<polygon fill="black" stroke="black" points="816.19,-232.71 805.6,-232.49 813.74,-239.27 816.19,-232.71"/>
</g>
<!-- node18 -->
<g id="node17" class="node">
<title>node18</title>
<polygon fill="white" stroke="black" points="824,-129.5 824,-235.5 1018,-235.5 1018,-129.5 824,-129.5"/>
<text text-anchor="middle" x="921" y="-220.3" font-family="Times,serif" font-size="14.00">mv_replicas_country</text>
<polyline fill="none" stroke="black" points="824,-212.5 1018,-212.5 "/>
<text text-anchor="start" x="832" y="-197.3" font-family="Times,serif" font-size="14.00">&#45; piece_id bigint [U]</text>
<text text-anchor="start" x="832" y="-182.3" font-family="Times,serif" font-size="14.00">&#45; claimant_id integer [U]</text>
<text text-anchor="start" x="832" y="-167.3" font-family="Times,serif" font-size="14.00">&#45; country_id smallint [U]</text>
<text text-anchor="start" x="832" y="-152.3" font-family="Times,serif" font-size="14.00">&#45; replicas_filplus smallint</text>
<text text-anchor="start" x="832" y="-137.3" font-family="Times,serif" font-size="14.00">&#45; replicas_any smallint</text>
</g>
<!-- node15&#45;&gt;node18 -->
<g id="edge7" class="edge">
<title>node15&#45;&gt;node18</title>
<path fill="none" stroke="black" d="M1053.79,-317.42C1031.52,-294.96 1004.21,-267.41 980.16,-243.16"/>
<polygon fill="black" stroke="black" points="982.33,-240.38 972.81,-235.74 977.36,-245.31 982.33,-240.38"/>
</g>
<!-- node19 -->
<g id="node18" class="node">
<title>node19</title>
<polygon fill="white" stroke="black" points="1036,-129.5 1036,-235.5 1230,-235.5 1230,-129.5 1036,-129.5"/>
<text text-anchor="middle" x="1133" y="-220.3" font-family="Times,serif" font-size="14.00">mv_replicas_org</text>
<polyline fill="none" stroke="black" points="1036,-212.5 1230,-212.5 "/>
<text text-anchor="start" x="1044" y="-197.3" font-family="Times,serif" font-size="14.00">&#45; piece_id bigint [U]</text>
<text text-anchor="start" x="1044" y="-182.3" font-family="Times,serif" font-size="14.00">&#45; claimant_id integer [U]</text>
<text text-anchor="start" x="1044" y="-167.3" font-family="Times,serif" font-size="14.00">&#45; org_id smallint [U]</text>
<text text-anchor="start" x="1044" y="-152.3" font-family="Times,serif" font-size="14.00">&#45; replicas_filplus smallint</text>
<text text-anchor="start" x="1044" y="-137.3" font-family="Times,serif" font-size="14.00">&#45; replicas_any smallint</text>
</g>
<!-- node15&#45;&gt;node19 -->
<g id="edge8" class="edge">
<title>node15&#45;&gt;node19</title>
<path fill="none" stroke="black" d="M1106.74,-317.42C1110.99,-295.73 1116.18,-269.31 1120.81,-245.68"/>
<polygon fill="black" stroke="black" points="1124.27,-246.23 1122.76,-235.74 1117.4,-244.88 1124.27,-246.23"/>
</g>
<!-- node20 -->
<g id="node19" class="node">
<title>node20</title>
<polygon fill="white" stroke="black" points="168,-16.5 168,-92.5 350,-92.5 350,-16.5 168,-16.5"/>
<text text-anchor="middle" x="259" y="-77.3" font-family="Times,serif" font-size="14.00">mv_overreplicated_city</text>
<polyline fill="none" stroke="black" points="168,-69.5 350,-69.5 "/>
<text text-anchor="start" x="176" y="-54.3" font-family="Times,serif" font-size="14.00">&#45; piece_id bigint [U]</text>
<text text-anchor="start" x="176" y="-39.3" font-family="Times,serif" font-size="14.00">&#45; tenant_id smallint [U]</text>
<text text-anchor="start" x="176" y="-24.3" font-family="Times,serif" font-size="14.00">&#45; city_id smallint [U]</text>
</g>
<!-- node16&#45;&gt;node20 -->
<g id="edge9" class="edge">
<title>node16&#45;&gt;node20</title>
<path fill="none" stroke="black" d="M326.23,-129.16C317.37,-119.45 308.19,-109.39 299.56,-99.94"/>
<polygon fill="black" stroke="black" points="302.11,-97.54 292.79,-92.52 296.94,-102.26 302.11,-97.54"/>
</g>
<!-- node21 -->
<g id="node20" class="node">
<title>node21</title>
<polygon fill="white" stroke="black" points="368.5,-16.5 368.5,-92.5 591.5,-92.5 591.5,-16.5 368.5,-16.5"/>
<text text-anchor="middle" x="480" y="-77.3" font-family="Times,serif" font-size="14.00">mv_overreplicated_continent</text>
<polyline fill="none" stroke="black" points="368.5,-69.5 591.5,-69.5 "/>
<text text-anchor="start" x="376.5" y="-54.3" font-family="Times,serif" font-size="14.00">&#45; piece_id bigint [U]</text>
<text text-anchor="start" x="376.5" y="-39.3" font-family="Times,serif" font-size="14.00">&#45; tenant_id smallint [U]</text>
<text text-anchor="start" x="376.5" y="-24.3" font-family="Times,serif" font-size="14.00">&#45; continent_id smallint [U]</text>
</g>
<!-- node17&#45;&gt;node21 -->
<g id="edge10" class="edge">
<title>node17&#45;&gt;node21</title>
<path fill="none" stroke="black" d="M611.27,-129.34C592.45,-118.75 572.87,-107.74 554.77,-97.56"/>
<polygon fill="black" stroke="black" points="556.44,-94.48 546,-92.63 553,-100.58 556.44,-94.48"/>
</g>
<!-- node24 -->
<g id="node21" class="node">
<title>node24</title>
<polygon fill="white" stroke="black" points="610,-24 610,-85 798,-85 798,-24 610,-24"/>
<text text-anchor="middle" x="704" y="-69.8" font-family="Times,serif" font-size="14.00">mv_overreplicated_total</text>
<polyline fill="none" stroke="black" points="610,-62 798,-62 "/>
<text text-anchor="start" x="618" y="-46.8" font-family="Times,serif" font-size="14.00">&#45; piece_id bigint [U]</text>
<text text-anchor="start" x="618" y="-31.8" font-family="Times,serif" font-size="14.00">&#45; tenant_id smallint [U]</text>
</g>
<!-- node17&#45;&gt;node24 -->
<g id="edge11" class="edge">
<title>node17&#45;&gt;node24</title>
<path fill="none" stroke="black" d="M704,-129.16C704,-117.9 704,-106.18 704,-95.48"/>
<polygon fill="black" stroke="black" points="707.5,-95.18 704,-85.18 700.5,-95.18 707.5,-95.18"/>
</g>
<!-- node22 -->
<g id="node22" class="node">
<title>node22</title>
<polygon fill="white" stroke="black" points="816,-16.5 816,-92.5 1026,-92.5 1026,-16.5 816,-16.5"/>
<text text-anchor="middle" x="921" y="-77.3" font-family="Times,serif" font-size="14.00">mv_overreplicated_country</text>
<polyline fill="none" stroke="black" points="816,-69.5 1026,-69.5 "/>
<text text-anchor="start" x="824" y="-54.3" font-family="Times,serif" font-size="14.00">&#45; piece_id bigint [U]</text>
<text text-anchor="start" x="824" y="-39.3" font-family="Times,serif" font-size="14.00">&#45; tenant_id smallint [U]</text>
<text text-anchor="start" x="824" y="-24.3" font-family="Times,serif" font-size="14.00">&#45; country_id smallint [U]</text>
</g>
<!-- node18&#45;&gt;node22 -->
<g id="edge12" class="edge">
<title>node18&#45;&gt;node22</title>
<path fill="none" stroke="black" d="M921,-129.16C921,-120.41 921,-111.38 921,-102.77"/>
<polygon fill="black" stroke="black" points="924.5,-102.52 921,-92.52 917.5,-102.52 924.5,-102.52"/>
</g>
<!-- node23 -->
<g id="node23" class="node">
<title>node23</title>
<polygon fill="white" stroke="black" points="1044,-16.5 1044,-92.5 1226,-92.5 1226,-16.5 1044,-16.5"/>
<text text-anchor="middle" x="1135" y="-77.3" font-family="Times,serif" font-size="14.00">mv_overreplicated_org</text>
<polyline fill="none" stroke="black" points="1044,-69.5 1226,-69.5 "/>
<text text-anchor="start" x="1052" y="-54.3" font-family="Times,serif" font-size="14.00">&#45; piece_id bigint [U]</text>
<text text-anchor="start" x="1052" y="-39.3" font-family="Times,serif" font-size="14.00">&#45; tenant_id smallint [U]</text>
<text text-anchor="start" x="1052" y="-24.3" font-family="Times,serif" font-size="14.00">&#45; org_id smallint [U]</text>
</g>
<!-- node19&#45;&gt;node23 -->
<g id="edge13" class="edge">
<title>node19&#45;&gt;node23</title>
<path fill="none" stroke="black" d="M1133.83,-129.16C1133.97,-120.41 1134.11,-111.38 1134.25,-102.77"/>
<polygon fill="black" stroke="black" points="1137.75,-102.57 1134.41,-92.52 1130.75,-102.46 1137.75,-102.57"/>
</g>
<!-- node25 -->
<g id="node25" class="node">
<title>node25</title>
<polygon fill="white" stroke="black" points="426.5,-317.5 426.5,-408.5 623.5,-408.5 623.5,-317.5 426.5,-317.5"/>
<text text-anchor="middle" x="525" y="-393.3" font-family="Times,serif" font-size="14.00">clients_datacap_available</text>
<polyline fill="none" stroke="black" points="426.5,-385.5 623.5,-385.5 "/>
<text text-anchor="start" x="434.5" y="-370.3" font-family="Times,serif" font-size="14.00">&#45; client_id</text>
<text text-anchor="start" x="434.5" y="-355.3" font-family="Times,serif" font-size="14.00">&#45; client_address</text>
<text text-anchor="start" x="434.5" y="-340.3" font-family="Times,serif" font-size="14.00">&#45; tenant_id</text>
<text text-anchor="start" x="434.5" y="-325.3" font-family="Times,serif" font-size="14.00">&#45; datacap_available</text>
</g>
<!-- node26 -->
<g id="node26" class="node">
<title>node26</title>
<polygon fill="white" stroke="black" points="244,-272.5 244,-453.5 408,-453.5 408,-272.5 244,-272.5"/>
<text text-anchor="middle" x="326" y="-438.3" font-family="Times,serif" font-size="14.00">known_deals_ranked</text>
<polyline fill="none" stroke="black" points="244,-430.5 408,-430.5 "/>
<text text-anchor="start" x="252" y="-415.3" font-family="Times,serif" font-size="14.00">&#45; intra_sp_rank</text>
<text text-anchor="start" x="252" y="-400.3" font-family="Times,serif" font-size="14.00">&#45; deal_id</text>
<text text-anchor="start" x="252" y="-385.3" font-family="Times,serif" font-size="14.00">&#45; piece_id</text>
<text text-anchor="start" x="252" y="-370.3" font-family="Times,serif" font-size="14.00">&#45; provider_id</text>
<text text-anchor="start" x="252" y="-355.3" font-family="Times,serif" font-size="14.00">&#45; client_id</text>
<text text-anchor="start" x="252" y="-340.3" font-family="Times,serif" font-size="14.00">&#45; end_epoch</text>
<text text-anchor="start" x="252" y="-325.3" font-family="Times,serif" font-size="14.00">&#45; state</text>
<text text-anchor="start" x="252" y="-310.3" font-family="Times,serif" font-size="14.00">&#45; is_filplus</text>
<text text-anchor="start" x="252" y="-295.3" font-family="Times,serif" font-size="14.00">&#45; proposal_label</text>
<text text-anchor="start" x="252" y="-280.3" font-family="Times,serif" font-size="14.00">&#45; claimant_ids</text>
</g>
<!-- node27 -->
<g id="node27" class="node">
<title>node27</title>
<polygon fill="white" stroke="black" points="16,-295 16,-431 226,-431 226,-295 16,-295"/>
<text text-anchor="middle" x="121" y="-415.8" font-family="Times,serif" font-size="14.00">known_fildag_deals_ranked</text>
<polyline fill="none" stroke="black" points="16,-408 226,-408 "/>
<text text-anchor="start" x="24" y="-392.8" font-family="Times,serif" font-size="14.00">&#45; piece_id</text>
<text text-anchor="start" x="24" y="-377.8" font-family="Times,serif" font-size="14.00">&#45; deal_id</text>
<text text-anchor="start" x="24" y="-362.8" font-family="Times,serif" font-size="14.00">&#45; end_epoch</text>
<text text-anchor="start" x="24" y="-347.8" font-family="Times,serif" font-size="14.00">&#45; provider_id</text>
<text text-anchor="start" x="24" y="-332.8" font-family="Times,serif" font-size="14.00">&#45; is_filplus</text>
<text text-anchor="start" x="24" y="-317.8" font-family="Times,serif" font-size="14.00">&#45; proposal_label</text>
<text text-anchor="start" x="24" y="-302.8" font-family="Times,serif" font-size="14.00">&#45; rank</text>
</g>
</g>
</svg>
