<?xml version="1.0" encoding="UTF-8" standalone="no"?>
<!DOCTYPE svg PUBLIC "-//W3C//DTD SVG 1.1//EN"
 "http://www.w3.org/Graphics/SVG/1.1/DTD/svg11.dtd">
<!-- Generated by graphviz version 2.43.0 (0)
 -->
<!-- Title: test Pages: 1 -->
<svg width="1993pt" height="1337pt"
 viewBox="0.00 0.00 1992.50 1337.00" xmlns="http://www.w3.org/2000/svg" xmlns:xlink="http://www.w3.org/1999/xlink">
<g id="graph0" class="graph" transform="scale(1 1) rotate(0) translate(4 1333)">
<title>test</title>
<polygon fill="white" stroke="transparent" points="-4,4 -4,-1333 1988.5,-1333 1988.5,4 -4,4"/>
<g id="clust1" class="cluster">
<title>cluster_views</title>
<polygon fill="none" stroke="black" points="8,-8 8,-485 1429,-485 1429,-8 8,-8"/>
<text text-anchor="middle" x="718.5" y="-469.8" font-family="Times,serif" font-size="14.00">views</text>
</g>
<!-- node1 -->
<g id="node1" class="node">
<title>node1</title>
<polygon fill="white" stroke="black" points="698,-1252.5 698,-1328.5 886,-1328.5 886,-1252.5 698,-1252.5"/>
<text text-anchor="middle" x="792" y="-1313.3" font-family="Times,serif" font-size="14.00">datasets</text>
<polyline fill="none" stroke="black" points="698,-1305.5 886,-1305.5 "/>
<text text-anchor="start" x="706" y="-1290.3" font-family="Times,serif" font-size="14.00">&#45; dataset_id smallint [U]</text>
<text text-anchor="start" x="706" y="-1275.3" font-family="Times,serif" font-size="14.00">&#45; dataset_slug text [U]</text>
<text text-anchor="start" x="706" y="-1260.3" font-family="Times,serif" font-size="14.00">&#45; dataset_meta jsonb</text>
</g>
<!-- node9 -->
<g id="node8" class="node">
<title>node9</title>
<polygon fill="white" stroke="black" points="546.5,-861.5 546.5,-937.5 759.5,-937.5 759.5,-861.5 546.5,-861.5"/>
<text text-anchor="middle" x="653" y="-922.3" font-family="Times,serif" font-size="14.00">datasets_pieces</text>
<polyline fill="none" stroke="black" points="546.5,-914.5 759.5,-914.5 "/>
<text text-anchor="start" x="554.5" y="-899.3" font-family="Times,serif" font-size="14.00">&#45; piece_id bigint [FK,U]</text>
<text text-anchor="start" x="554.5" y="-884.3" font-family="Times,serif" font-size="14.00">&#45; dataset_id smallint [FK,U]</text>
<text text-anchor="start" x="554.5" y="-869.3" font-family="Times,serif" font-size="14.00">&#45; dataset_piece_meta jsonb</text>
</g>
<!-- node1&#45;&gt;node9 -->
<g id="edge3" class="edge">
<title>node1&#45;&gt;node9</title>
<path fill="none" stroke="black" d="M697.8,-1270.62C668.16,-1259.76 638.6,-1242.72 621,-1216 566.88,-1133.83 603.92,-1012.63 631.21,-946.94"/>
<polygon fill="black" stroke="black" points="634.46,-948.23 635.16,-937.66 628.02,-945.49 634.46,-948.23"/>
</g>
<!-- node10 -->
<g id="node9" class="node">
<title>node10</title>
<polygon fill="white" stroke="black" points="872,-1102 872,-1178 1090,-1178 1090,-1102 872,-1102"/>
<text text-anchor="middle" x="981" y="-1162.8" font-family="Times,serif" font-size="14.00">tenants_datasets</text>
<polyline fill="none" stroke="black" points="872,-1155 1090,-1155 "/>
<text text-anchor="start" x="880" y="-1139.8" font-family="Times,serif" font-size="14.00">&#45; tenant_id smallint [FK,U]</text>
<text text-anchor="start" x="880" y="-1124.8" font-family="Times,serif" font-size="14.00">&#45; dataset_id smallint [FK,U]</text>
<text text-anchor="start" x="880" y="-1109.8" font-family="Times,serif" font-size="14.00">&#45; tenant_dataset_meta jsonb</text>
</g>
<!-- node1&#45;&gt;node10 -->
<g id="edge4" class="edge">
<title>node1&#45;&gt;node10</title>
<path fill="none" stroke="black" d="M839.21,-1252.41C865.48,-1231.77 898.32,-1205.96 925.78,-1184.39"/>
<polygon fill="black" stroke="black" points="928.04,-1187.06 933.74,-1178.13 923.72,-1181.56 928.04,-1187.06"/>
</g>
<!-- node2 -->
<g id="node2" class="node">
<title>node2</title>
<polygon fill="white" stroke="black" points="1320,-1260 1320,-1321 1532,-1321 1532,-1260 1320,-1260"/>
<text text-anchor="middle" x="1426" y="-1305.8" font-family="Times,serif" font-size="14.00">global</text>
<polyline fill="none" stroke="black" points="1320,-1298 1532,-1298 "/>
<text text-anchor="start" x="1328" y="-1282.8" font-family="Times,serif" font-size="14.00">&#45; singleton_row boolean [U]</text>
<text text-anchor="start" x="1328" y="-1267.8" font-family="Times,serif" font-size="14.00">&#45; metadata jsonb</text>
</g>
<!-- node3 -->
<g id="node3" class="node">
<title>node3</title>
<polygon fill="white" stroke="black" points="630,-1087 630,-1193 854,-1193 854,-1087 630,-1087"/>
<text text-anchor="middle" x="742" y="-1177.8" font-family="Times,serif" font-size="14.00">pieces</text>
<polyline fill="none" stroke="black" points="630,-1170 854,-1170 "/>
<text text-anchor="start" x="638" y="-1154.8" font-family="Times,serif" font-size="14.00">&#45; piece_id bigint [U]</text>
<text text-anchor="start" x="638" y="-1139.8" font-family="Times,serif" font-size="14.00">&#45; piece_cid text [U]</text>
<text text-anchor="start" x="638" y="-1124.8" font-family="Times,serif" font-size="14.00">&#45; piece_log2_size smallint [U]</text>
<text text-anchor="start" x="638" y="-1109.8" font-family="Times,serif" font-size="14.00">&#45; proposal_label text [N]</text>
<text text-anchor="start" x="638" y="-1094.8" font-family="Times,serif" font-size="14.00">&#45; piece_meta jsonb</text>
</g>
<!-- node3&#45;&gt;node9 -->
<g id="edge14" class="edge">
<title>node3&#45;&gt;node9</title>
<path fill="none" stroke="black" d="M722.58,-1086.95C707.03,-1045.3 685.42,-987.39 670.43,-947.21"/>
<polygon fill="black" stroke="black" points="673.64,-945.79 666.86,-937.65 667.08,-948.24 673.64,-945.79"/>
</g>
<!-- node12 -->
<g id="node11" class="node">
<title>node12</title>
<polygon fill="white" stroke="black" points="803,-771.5 803,-1027.5 1119,-1027.5 1119,-771.5 803,-771.5"/>
<text text-anchor="middle" x="961" y="-1012.3" font-family="Times,serif" font-size="14.00">published_deals</text>
<polyline fill="none" stroke="black" points="803,-1004.5 1119,-1004.5 "/>
<text text-anchor="start" x="811" y="-989.3" font-family="Times,serif" font-size="14.00">&#45; deal_id bigint [U]</text>
<text text-anchor="start" x="811" y="-974.3" font-family="Times,serif" font-size="14.00">&#45; piece_id bigint [FK]</text>
<text text-anchor="start" x="811" y="-959.3" font-family="Times,serif" font-size="14.00">&#45; piece_cid text [FK]</text>
<text text-anchor="start" x="811" y="-944.3" font-family="Times,serif" font-size="14.00">&#45; piece_log2_size smallint [FK]</text>
<text text-anchor="start" x="811" y="-929.3" font-family="Times,serif" font-size="14.00">&#45; provider_id integer [FK]</text>
<text text-anchor="start" x="811" y="-914.3" font-family="Times,serif" font-size="14.00">&#45; client_id integer [FK]</text>
<text text-anchor="start" x="811" y="-899.3" font-family="Times,serif" font-size="14.00">&#45; label bytea</text>
<text text-anchor="start" x="811" y="-884.3" font-family="Times,serif" font-size="14.00">&#45; decoded_label text [N]</text>
<text text-anchor="start" x="811" y="-869.3" font-family="Times,serif" font-size="14.00">&#45; is_filplus boolean</text>
<text text-anchor="start" x="811" y="-854.3" font-family="Times,serif" font-size="14.00">&#45; status text</text>
<text text-anchor="start" x="811" y="-839.3" font-family="Times,serif" font-size="14.00">&#45; published_deal_meta jsonb</text>
<text text-anchor="start" x="811" y="-824.3" font-family="Times,serif" font-size="14.00">&#45; start_epoch integer</text>
<text text-anchor="start" x="811" y="-809.3" font-family="Times,serif" font-size="14.00">&#45; end_epoch integer</text>
<text text-anchor="start" x="811" y="-794.3" font-family="Times,serif" font-size="14.00">&#45; sector_start_epoch integer [N]</text>
<text text-anchor="start" x="811" y="-779.3" font-family="Times,serif" font-size="14.00">&#45; entry_created timestamp with time zone</text>
</g>
<!-- node3&#45;&gt;node12 -->
<g id="edge16" class="edge">
<title>node3&#45;&gt;node12</title>
<path fill="none" stroke="black" d="M789.79,-1086.95C804,-1071.48 820.26,-1053.77 836.98,-1035.56"/>
<polygon fill="black" stroke="black" points="839.99,-1037.46 844.17,-1027.73 834.83,-1032.73 839.99,-1037.46"/>
</g>
<!-- node15 -->
<g id="node13" class="node">
<title>node15</title>
<polygon fill="white" stroke="black" points="988.5,-493.5 988.5,-734.5 1369.5,-734.5 1369.5,-493.5 988.5,-493.5"/>
<text text-anchor="middle" x="1179" y="-719.3" font-family="Times,serif" font-size="14.00">proposals</text>
<polyline fill="none" stroke="black" points="988.5,-711.5 1369.5,-711.5 "/>
<text text-anchor="start" x="996.5" y="-696.3" font-family="Times,serif" font-size="14.00">&#45; proposal_uuid uuid [U]</text>
<text text-anchor="start" x="996.5" y="-681.3" font-family="Times,serif" font-size="14.00">&#45; piece_id bigint [FK,U]</text>
<text text-anchor="start" x="996.5" y="-666.3" font-family="Times,serif" font-size="14.00">&#45; entry_created timestamp with time zone</text>
<text text-anchor="start" x="996.5" y="-651.3" font-family="Times,serif" font-size="14.00">&#45; signature_obtained timestamp with time zone [N]</text>
<text text-anchor="start" x="996.5" y="-636.3" font-family="Times,serif" font-size="14.00">&#45; proposal_delivered timestamp with time zone [N]</text>
<text text-anchor="start" x="996.5" y="-621.3" font-family="Times,serif" font-size="14.00">&#45; activated_deal_id bigint [FK,U,N]</text>
<text text-anchor="start" x="996.5" y="-606.3" font-family="Times,serif" font-size="14.00">&#45; proposal_failstamp bigint [U]</text>
<text text-anchor="start" x="996.5" y="-591.3" font-family="Times,serif" font-size="14.00">&#45; entry_last_updated timestamp with time zone</text>
<text text-anchor="start" x="996.5" y="-576.3" font-family="Times,serif" font-size="14.00">&#45; provider_id integer [FK,U]</text>
<text text-anchor="start" x="996.5" y="-561.3" font-family="Times,serif" font-size="14.00">&#45; client_id integer [FK]</text>
<text text-anchor="start" x="996.5" y="-546.3" font-family="Times,serif" font-size="14.00">&#45; start_epoch integer</text>
<text text-anchor="start" x="996.5" y="-531.3" font-family="Times,serif" font-size="14.00">&#45; end_epoch integer</text>
<text text-anchor="start" x="996.5" y="-516.3" font-family="Times,serif" font-size="14.00">&#45; piece_log2_size smallint [FK]</text>
<text text-anchor="start" x="996.5" y="-501.3" font-family="Times,serif" font-size="14.00">&#45; proposal_meta jsonb</text>
</g>
<!-- node3&#45;&gt;node15 -->
<g id="edge15" class="edge">
<title>node3&#45;&gt;node15</title>
<path fill="none" stroke="black" d="M815.35,-1086.83C830.53,-1077.99 846.83,-1069.81 863,-1064 918.93,-1043.9 1086.23,-1070.28 1128,-1028 1166.58,-988.95 1177.33,-850.71 1179.69,-744.82"/>
<polygon fill="black" stroke="black" points="1183.19,-744.75 1179.9,-734.68 1176.2,-744.61 1183.19,-744.75"/>
</g>
<!-- node4 -->
<g id="node4" class="node">
<title>node4</title>
<polygon fill="white" stroke="black" points="1332,-1064.5 1332,-1215.5 1570,-1215.5 1570,-1064.5 1332,-1064.5"/>
<text text-anchor="middle" x="1451" y="-1200.3" font-family="Times,serif" font-size="14.00">providers</text>
<polyline fill="none" stroke="black" points="1332,-1192.5 1570,-1192.5 "/>
<text text-anchor="start" x="1340" y="-1177.3" font-family="Times,serif" font-size="14.00">&#45; provider_id integer [U]</text>
<text text-anchor="start" x="1340" y="-1162.3" font-family="Times,serif" font-size="14.00">&#45; org_id smallint</text>
<text text-anchor="start" x="1340" y="-1147.3" font-family="Times,serif" font-size="14.00">&#45; city_id smallint</text>
<text text-anchor="start" x="1340" y="-1132.3" font-family="Times,serif" font-size="14.00">&#45; country_id smallint</text>
<text text-anchor="start" x="1340" y="-1117.3" font-family="Times,serif" font-size="14.00">&#45; continent_id smallint</text>
<text text-anchor="start" x="1340" y="-1102.3" font-family="Times,serif" font-size="14.00">&#45; sector_log2_size smallint</text>
<text text-anchor="start" x="1340" y="-1087.3" font-family="Times,serif" font-size="14.00">&#45; can_seal_64g_sectors boolean</text>
<text text-anchor="start" x="1340" y="-1072.3" font-family="Times,serif" font-size="14.00">&#45; provider_meta jsonb</text>
</g>
<!-- node8 -->
<g id="node7" class="node">
<title>node8</title>
<polygon fill="white" stroke="black" points="1425,-846.5 1425,-952.5 1741,-952.5 1741,-846.5 1425,-846.5"/>
<text text-anchor="middle" x="1583" y="-937.3" font-family="Times,serif" font-size="14.00">requests</text>
<polyline fill="none" stroke="black" points="1425,-929.5 1741,-929.5 "/>
<text text-anchor="start" x="1433" y="-914.3" font-family="Times,serif" font-size="14.00">&#45; provider_id integer [FK]</text>
<text text-anchor="start" x="1433" y="-899.3" font-family="Times,serif" font-size="14.00">&#45; request_uuid uuid [U]</text>
<text text-anchor="start" x="1433" y="-884.3" font-family="Times,serif" font-size="14.00">&#45; entry_created timestamp with time zone</text>
<text text-anchor="start" x="1433" y="-869.3" font-family="Times,serif" font-size="14.00">&#45; request_dump jsonb</text>
<text text-anchor="start" x="1433" y="-854.3" font-family="Times,serif" font-size="14.00">&#45; request_meta jsonb</text>
</g>
<!-- node4&#45;&gt;node8 -->
<g id="edge21" class="edge">
<title>node4&#45;&gt;node8</title>
<path fill="none" stroke="black" d="M1492.4,-1064.19C1510.64,-1031.24 1531.8,-993.01 1549.08,-961.79"/>
<polygon fill="black" stroke="black" points="1552.3,-963.2 1554.08,-952.76 1546.17,-959.81 1552.3,-963.2"/>
</g>
<!-- node11 -->
<g id="node10" class="node">
<title>node11</title>
<polygon fill="white" stroke="black" points="1759.5,-861.5 1759.5,-937.5 1984.5,-937.5 1984.5,-861.5 1759.5,-861.5"/>
<text text-anchor="middle" x="1872" y="-922.3" font-family="Times,serif" font-size="14.00">tenants_providers</text>
<polyline fill="none" stroke="black" points="1759.5,-914.5 1984.5,-914.5 "/>
<text text-anchor="start" x="1767.5" y="-899.3" font-family="Times,serif" font-size="14.00">&#45; provider_id integer [FK,U]</text>
<text text-anchor="start" x="1767.5" y="-884.3" font-family="Times,serif" font-size="14.00">&#45; tenant_id smallint [FK,U]</text>
<text text-anchor="start" x="1767.5" y="-869.3" font-family="Times,serif" font-size="14.00">&#45; tenant_provider_meta jsonb</text>
</g>
<!-- node4&#45;&gt;node11 -->
<g id="edge22" class="edge">
<title>node4&#45;&gt;node11</title>
<path fill="none" stroke="black" d="M1570.02,-1108.41C1627.32,-1090.39 1695.28,-1063.96 1750,-1028 1783.9,-1005.72 1815.38,-972.37 1837.86,-945.37"/>
<polygon fill="black" stroke="black" points="1840.62,-947.53 1844.25,-937.57 1835.21,-943.09 1840.62,-947.53"/>
</g>
<!-- node4&#45;&gt;node12 -->
<g id="edge20" class="edge">
<title>node4&#45;&gt;node12</title>
<path fill="none" stroke="black" d="M1332,-1068.72C1328.98,-1067.11 1325.97,-1065.54 1323,-1064 1260.51,-1031.69 1190.34,-999.17 1128.53,-971.74"/>
<polygon fill="black" stroke="black" points="1129.64,-968.4 1119.08,-967.55 1126.81,-974.8 1129.64,-968.4"/>
</g>
<!-- node4&#45;&gt;node15 -->
<g id="edge19" class="edge">
<title>node4&#45;&gt;node15</title>
<path fill="none" stroke="black" d="M1403.98,-1064.31C1396.77,-1052.28 1389.55,-1039.87 1383,-1028 1331.47,-934.62 1278.27,-826.45 1239.12,-744.25"/>
<polygon fill="black" stroke="black" points="1242.11,-742.39 1234.66,-734.86 1235.79,-745.39 1242.11,-742.39"/>
</g>
<!-- node7 -->
<g id="node24" class="node">
<title>node7</title>
<polygon fill="white" stroke="black" points="1247.5,-332.5 1247.5,-393.5 1420.5,-393.5 1420.5,-332.5 1247.5,-332.5"/>
<text text-anchor="middle" x="1334" y="-378.3" font-family="Times,serif" font-size="14.00">mv_orglocal_presence</text>
<polyline fill="none" stroke="black" points="1247.5,-370.5 1420.5,-370.5 "/>
<text text-anchor="start" x="1255.5" y="-355.3" font-family="Times,serif" font-size="14.00">&#45; piece_id bigint [U]</text>
<text text-anchor="start" x="1255.5" y="-340.3" font-family="Times,serif" font-size="14.00">&#45; org_id smallint [U]</text>
</g>
<!-- node4&#45;&gt;node7 -->
<g id="edge18" class="edge">
<title>node4&#45;&gt;node7</title>
<path fill="none" stroke="black" d="M1424.84,-1064.38C1421.38,-1052.34 1418.26,-1039.91 1416,-1028 1371.63,-793.82 1426.9,-726.48 1379,-493 1372.65,-462.03 1360.71,-428.33 1350.72,-403.15"/>
<polygon fill="black" stroke="black" points="1353.86,-401.56 1346.87,-393.6 1347.36,-404.18 1353.86,-401.56"/>
</g>
<!-- node5 -->
<g id="node5" class="node">
<title>node5</title>
<polygon fill="white" stroke="black" points="1120,-1252.5 1120,-1328.5 1302,-1328.5 1302,-1252.5 1120,-1252.5"/>
<text text-anchor="middle" x="1211" y="-1313.3" font-family="Times,serif" font-size="14.00">tenants</text>
<polyline fill="none" stroke="black" points="1120,-1305.5 1302,-1305.5 "/>
<text text-anchor="start" x="1128" y="-1290.3" font-family="Times,serif" font-size="14.00">&#45; tenant_id smallint [U]</text>
<text text-anchor="start" x="1128" y="-1275.3" font-family="Times,serif" font-size="14.00">&#45; tenant_name text [U]</text>
<text text-anchor="start" x="1128" y="-1260.3" font-family="Times,serif" font-size="14.00">&#45; tenant_meta jsonb</text>
</g>
<!-- node6 -->
<g id="node6" class="node">
<title>node6</title>
<polygon fill="white" stroke="black" points="1108,-1094.5 1108,-1185.5 1314,-1185.5 1314,-1094.5 1108,-1094.5"/>
<text text-anchor="middle" x="1211" y="-1170.3" font-family="Times,serif" font-size="14.00">clients</text>
<polyline fill="none" stroke="black" points="1108,-1162.5 1314,-1162.5 "/>
<text text-anchor="start" x="1116" y="-1147.3" font-family="Times,serif" font-size="14.00">&#45; client_id integer [U]</text>
<text text-anchor="start" x="1116" y="-1132.3" font-family="Times,serif" font-size="14.00">&#45; tenant_id smallint [FK,N]</text>
<text text-anchor="start" x="1116" y="-1117.3" font-family="Times,serif" font-size="14.00">&#45; client_address text [U,N]</text>
<text text-anchor="start" x="1116" y="-1102.3" font-family="Times,serif" font-size="14.00">&#45; client_meta jsonb</text>
</g>
<!-- node5&#45;&gt;node6 -->
<g id="edge27" class="edge">
<title>node5&#45;&gt;node6</title>
<path fill="none" stroke="black" d="M1211,-1252.41C1211,-1235.3 1211,-1214.65 1211,-1195.8"/>
<polygon fill="none" stroke="black" points="1214.5,-1195.55 1211,-1185.55 1207.5,-1195.55 1214.5,-1195.55"/>
</g>
<!-- node5&#45;&gt;node10 -->
<g id="edge28" class="edge">
<title>node5&#45;&gt;node10</title>
<path fill="none" stroke="black" d="M1153.55,-1252.41C1121.17,-1231.5 1080.59,-1205.3 1046.91,-1183.56"/>
<polygon fill="black" stroke="black" points="1048.81,-1180.62 1038.51,-1178.13 1045.01,-1186.5 1048.81,-1180.62"/>
</g>
<!-- node5&#45;&gt;node11 -->
<g id="edge29" class="edge">
<title>node5&#45;&gt;node11</title>
<path fill="none" stroke="black" d="M1302.02,-1254.4C1305.03,-1253.55 1308.03,-1252.75 1311,-1252 1427.56,-1222.72 1472.29,-1271.28 1579,-1216 1701.05,-1152.78 1798.94,-1017.6 1844.4,-946.45"/>
<polygon fill="black" stroke="black" points="1847.56,-948.01 1849.95,-937.69 1841.64,-944.27 1847.56,-948.01"/>
</g>
<!-- node6&#45;&gt;node12 -->
<g id="edge2" class="edge">
<title>node6&#45;&gt;node12</title>
<path fill="none" stroke="black" d="M1164.27,-1094.42C1146.1,-1077.08 1124.23,-1056.22 1101.68,-1034.7"/>
<polygon fill="black" stroke="black" points="1103.98,-1032.07 1094.33,-1027.7 1099.15,-1037.13 1103.98,-1032.07"/>
</g>
<!-- node6&#45;&gt;node15 -->
<g id="edge1" class="edge">
<title>node6&#45;&gt;node15</title>
<path fill="none" stroke="black" d="M1208.27,-1094.32C1203.6,-1017.75 1193.88,-858.67 1186.93,-744.78"/>
<polygon fill="black" stroke="black" points="1190.41,-744.36 1186.3,-734.59 1183.42,-744.79 1190.41,-744.36"/>
</g>
<!-- node13 -->
<g id="node12" class="node">
<title>node13</title>
<polygon fill="white" stroke="black" points="738.5,-583.5 738.5,-644.5 933.5,-644.5 933.5,-583.5 738.5,-583.5"/>
<text text-anchor="middle" x="836" y="-629.3" font-family="Times,serif" font-size="14.00">invalidated_deals</text>
<polyline fill="none" stroke="black" points="738.5,-621.5 933.5,-621.5 "/>
<text text-anchor="start" x="746.5" y="-606.3" font-family="Times,serif" font-size="14.00">&#45; deal_id bigint [FK,U]</text>
<text text-anchor="start" x="746.5" y="-591.3" font-family="Times,serif" font-size="14.00">&#45; invalidation_meta jsonb</text>
</g>
<!-- node12&#45;&gt;node13 -->
<g id="edge23" class="edge">
<title>node12&#45;&gt;node13</title>
<path fill="none" stroke="black" d="M904.9,-771.26C886.16,-728.76 866.64,-684.5 853.19,-653.98"/>
<polygon fill="black" stroke="black" points="856.28,-652.31 849.04,-644.57 849.87,-655.13 856.28,-652.31"/>
</g>
<!-- node12&#45;&gt;node15 -->
<g id="edge26" class="edge">
<title>node12&#45;&gt;node15</title>
<path fill="none" stroke="black" d="M1058.84,-771.26C1066.18,-761.72 1073.59,-752.08 1080.93,-742.54"/>
<polygon fill="none" stroke="black" points="1083.76,-744.6 1087.08,-734.54 1078.21,-740.34 1083.76,-744.6"/>
</g>
<!-- node16 -->
<g id="node14" class="node">
<title>node16</title>
<polygon fill="white" stroke="black" points="641.5,-317.5 641.5,-408.5 904.5,-408.5 904.5,-317.5 641.5,-317.5"/>
<text text-anchor="middle" x="773" y="-393.3" font-family="Times,serif" font-size="14.00">mv_deals_prefiltered_for_repcount</text>
<polyline fill="none" stroke="black" points="641.5,-385.5 904.5,-385.5 "/>
<text text-anchor="start" x="649.5" y="-370.3" font-family="Times,serif" font-size="14.00">&#45; piece_id bigint [U]</text>
<text text-anchor="start" x="649.5" y="-355.3" font-family="Times,serif" font-size="14.00">&#45; provider_id integer [U]</text>
<text text-anchor="start" x="649.5" y="-340.3" font-family="Times,serif" font-size="14.00">&#45; is_filplus boolean [U]</text>
<text text-anchor="start" x="649.5" y="-325.3" font-family="Times,serif" font-size="14.00">&#45; claimant_id integer [U]</text>
</g>
<!-- node12&#45;&gt;node16 -->
<g id="edge24" class="edge">
<title>node12&#45;&gt;node16</title>
<path fill="none" stroke="black" d="M802.85,-794.91C765.14,-768.62 734.18,-744.98 729,-735 675.88,-632.57 717.83,-493.35 748.38,-417.93"/>
<polygon fill="black" stroke="black" points="751.64,-419.19 752.22,-408.61 745.17,-416.52 751.64,-419.19"/>
</g>
<!-- node14 -->
<g id="node25" class="node">
<title>node14</title>
<polygon fill="white" stroke="black" points="922.5,-272.5 922.5,-453.5 1229.5,-453.5 1229.5,-272.5 922.5,-272.5"/>
<text text-anchor="middle" x="1076" y="-438.3" font-family="Times,serif" font-size="14.00">mv_pieces_availability</text>
<polyline fill="none" stroke="black" points="922.5,-430.5 1229.5,-430.5 "/>
<text text-anchor="start" x="930.5" y="-415.3" font-family="Times,serif" font-size="14.00">&#45; display_sort bigint</text>
<text text-anchor="start" x="930.5" y="-400.3" font-family="Times,serif" font-size="14.00">&#45; piece_id bigint [U]</text>
<text text-anchor="start" x="930.5" y="-385.3" font-family="Times,serif" font-size="14.00">&#45; coarse_latest_active_end_epoch integer</text>
<text text-anchor="start" x="930.5" y="-370.3" font-family="Times,serif" font-size="14.00">&#45; piece_log2_size smallint</text>
<text text-anchor="start" x="930.5" y="-355.3" font-family="Times,serif" font-size="14.00">&#45; requires_64g_sector boolean</text>
<text text-anchor="start" x="930.5" y="-340.3" font-family="Times,serif" font-size="14.00">&#45; http_available boolean</text>
<text text-anchor="start" x="930.5" y="-325.3" font-family="Times,serif" font-size="14.00">&#45; piece_cid text</text>
<text text-anchor="start" x="930.5" y="-310.3" font-family="Times,serif" font-size="14.00">&#45; proposal_label text</text>
<text text-anchor="start" x="930.5" y="-295.3" font-family="Times,serif" font-size="14.00">&#45; potential_tenant_ids smallint[]</text>
<text text-anchor="start" x="930.5" y="-280.3" font-family="Times,serif" font-size="14.00">&#45; has_sources boolean</text>
</g>
<!-- node12&#45;&gt;node14 -->
<g id="edge25" class="edge">
<title>node12&#45;&gt;node14</title>
<path fill="none" stroke="black" d="M948.22,-771.5C944.47,-689.66 948.09,-582.26 980,-493 983.74,-482.53 988.65,-472.19 994.26,-462.2"/>
<polygon fill="black" stroke="black" points="997.31,-463.92 999.36,-453.52 991.27,-460.37 997.31,-463.92"/>
</g>
<!-- node15&#45;&gt;node16 -->
<g id="edge17" class="edge">
<title>node15&#45;&gt;node16</title>
<path fill="none" stroke="black" d="M988.34,-512.58C972.82,-505.6 957.24,-498.97 942,-493 929.95,-488.28 925.4,-491.13 914,-485 880.39,-466.91 847.73,-439.7 822.32,-415.65"/>
<polygon fill="black" stroke="black" points="824.65,-413.04 815.01,-408.64 819.8,-418.09 824.65,-413.04"/>
</g>
<!-- node17 -->
<g id="node15" class="node">
<title>node17</title>
<polygon fill="white" stroke="black" points="243,-129.5 243,-235.5 437,-235.5 437,-129.5 243,-129.5"/>
<text text-anchor="middle" x="340" y="-220.3" font-family="Times,serif" font-size="14.00">mv_replicas_city</text>
<polyline fill="none" stroke="black" points="243,-212.5 437,-212.5 "/>
<text text-anchor="start" x="251" y="-197.3" font-family="Times,serif" font-size="14.00">&#45; piece_id bigint [U]</text>
<text text-anchor="start" x="251" y="-182.3" font-family="Times,serif" font-size="14.00">&#45; claimant_id integer [U]</text>
<text text-anchor="start" x="251" y="-167.3" font-family="Times,serif" font-size="14.00">&#45; city_id smallint [U]</text>
<text text-anchor="start" x="251" y="-152.3" font-family="Times,serif" font-size="14.00">&#45; replicas_filplus smallint</text>
<text text-anchor="start" x="251" y="-137.3" font-family="Times,serif" font-size="14.00">&#45; replicas_any smallint</text>
</g>
<!-- node16&#45;&gt;node17 -->
<g id="edge5" class="edge">
<title>node16&#45;&gt;node17</title>
<path fill="none" stroke="black" d="M711.23,-317.38C687.31,-301.51 659.17,-284.5 632,-272 572.98,-244.85 503.5,-223.4 447.12,-208.42"/>
<polygon fill="black" stroke="black" points="447.67,-204.95 437.11,-205.8 445.9,-211.72 447.67,-204.95"/>
</g>
<!-- node18 -->
<g id="node16" class="node">
<title>node18</title>
<polygon fill="white" stroke="black" points="558.5,-129.5 558.5,-235.5 761.5,-235.5 761.5,-129.5 558.5,-129.5"/>
<text text-anchor="middle" x="660" y="-220.3" font-family="Times,serif" font-size="14.00">mv_replicas_continent</text>
<polyline fill="none" stroke="black" points="558.5,-212.5 761.5,-212.5 "/>
<text text-anchor="start" x="566.5" y="-197.3" font-family="Times,serif" font-size="14.00">&#45; piece_id bigint [U]</text>
<text text-anchor="start" x="566.5" y="-182.3" font-family="Times,serif" font-size="14.00">&#45; claimant_id integer [U]</text>
<text text-anchor="start" x="566.5" y="-167.3" font-family="Times,serif" font-size="14.00">&#45; continent_id smallint [U]</text>
<text text-anchor="start" x="566.5" y="-152.3" font-family="Times,serif" font-size="14.00">&#45; replicas_filplus smallint</text>
<text text-anchor="start" x="566.5" y="-137.3" font-family="Times,serif" font-size="14.00">&#45; replicas_any smallint</text>
</g>
<!-- node16&#45;&gt;node18 -->
<g id="edge6" class="edge">
<title>node16&#45;&gt;node18</title>
<path fill="none" stroke="black" d="M744.78,-317.42C730.8,-295.34 713.72,-268.36 698.56,-244.41"/>
<polygon fill="black" stroke="black" points="701.38,-242.32 693.07,-235.74 695.47,-246.07 701.38,-242.32"/>
</g>
<!-- node19 -->
<g id="node17" class="node">
<title>node19</title>
<polygon fill="white" stroke="black" points="789,-129.5 789,-235.5 983,-235.5 983,-129.5 789,-129.5"/>
<text text-anchor="middle" x="886" y="-220.3" font-family="Times,serif" font-size="14.00">mv_replicas_country</text>
<polyline fill="none" stroke="black" points="789,-212.5 983,-212.5 "/>
<text text-anchor="start" x="797" y="-197.3" font-family="Times,serif" font-size="14.00">&#45; piece_id bigint [U]</text>
<text text-anchor="start" x="797" y="-182.3" font-family="Times,serif" font-size="14.00">&#45; claimant_id integer [U]</text>
<text text-anchor="start" x="797" y="-167.3" font-family="Times,serif" font-size="14.00">&#45; country_id smallint [U]</text>
<text text-anchor="start" x="797" y="-152.3" font-family="Times,serif" font-size="14.00">&#45; replicas_filplus smallint</text>
<text text-anchor="start" x="797" y="-137.3" font-family="Times,serif" font-size="14.00">&#45; replicas_any smallint</text>
</g>
<!-- node16&#45;&gt;node19 -->
<g id="edge7" class="edge">
<title>node16&#45;&gt;node19</title>
<path fill="none" stroke="black" d="M801.22,-317.42C815.2,-295.34 832.28,-268.36 847.44,-244.41"/>
<polygon fill="black" stroke="black" points="850.53,-246.07 852.93,-235.74 844.62,-242.32 850.53,-246.07"/>
</g>
<!-- node20 -->
<g id="node18" class="node">
<title>node20</title>
<polygon fill="white" stroke="black" points="1006,-129.5 1006,-235.5 1200,-235.5 1200,-129.5 1006,-129.5"/>
<text text-anchor="middle" x="1103" y="-220.3" font-family="Times,serif" font-size="14.00">mv_replicas_org</text>
<polyline fill="none" stroke="black" points="1006,-212.5 1200,-212.5 "/>
<text text-anchor="start" x="1014" y="-197.3" font-family="Times,serif" font-size="14.00">&#45; piece_id bigint [U]</text>
<text text-anchor="start" x="1014" y="-182.3" font-family="Times,serif" font-size="14.00">&#45; claimant_id integer [U]</text>
<text text-anchor="start" x="1014" y="-167.3" font-family="Times,serif" font-size="14.00">&#45; org_id smallint [U]</text>
<text text-anchor="start" x="1014" y="-152.3" font-family="Times,serif" font-size="14.00">&#45; replicas_filplus smallint</text>
<text text-anchor="start" x="1014" y="-137.3" font-family="Times,serif" font-size="14.00">&#45; replicas_any smallint</text>
</g>
<!-- node16&#45;&gt;node20 -->
<g id="edge8" class="edge">
<title>node16&#45;&gt;node20</title>
<path fill="none" stroke="black" d="M838.94,-317.3C862.24,-302.21 888.9,-285.72 914,-272 947.5,-253.69 957.41,-252.16 992,-236 993.56,-235.27 995.13,-234.54 996.71,-233.8"/>
<polygon fill="black" stroke="black" points="998.3,-236.92 1005.87,-229.51 995.33,-230.58 998.3,-236.92"/>
</g>
<!-- node21 -->
<g id="node19" class="node">
<title>node21</title>
<polygon fill="white" stroke="black" points="142,-16.5 142,-92.5 324,-92.5 324,-16.5 142,-16.5"/>
<text text-anchor="middle" x="233" y="-77.3" font-family="Times,serif" font-size="14.00">mv_overreplicated_city</text>
<polyline fill="none" stroke="black" points="142,-69.5 324,-69.5 "/>
<text text-anchor="start" x="150" y="-54.3" font-family="Times,serif" font-size="14.00">&#45; piece_id bigint [U]</text>
<text text-anchor="start" x="150" y="-39.3" font-family="Times,serif" font-size="14.00">&#45; tenant_id smallint [U]</text>
<text text-anchor="start" x="150" y="-24.3" font-family="Times,serif" font-size="14.00">&#45; city_id smallint [U]</text>
</g>
<!-- node17&#45;&gt;node21 -->
<g id="edge9" class="edge">
<title>node17&#45;&gt;node21</title>
<path fill="none" stroke="black" d="M295.55,-129.16C287.39,-119.55 278.93,-109.59 270.98,-100.23"/>
<polygon fill="black" stroke="black" points="273.58,-97.87 264.44,-92.52 268.24,-102.41 273.58,-97.87"/>
</g>
<!-- node22 -->
<g id="node20" class="node">
<title>node22</title>
<polygon fill="white" stroke="black" points="548.5,-16.5 548.5,-92.5 771.5,-92.5 771.5,-16.5 548.5,-16.5"/>
<text text-anchor="middle" x="660" y="-77.3" font-family="Times,serif" font-size="14.00">mv_overreplicated_continent</text>
<polyline fill="none" stroke="black" points="548.5,-69.5 771.5,-69.5 "/>
<text text-anchor="start" x="556.5" y="-54.3" font-family="Times,serif" font-size="14.00">&#45; piece_id bigint [U]</text>
<text text-anchor="start" x="556.5" y="-39.3" font-family="Times,serif" font-size="14.00">&#45; tenant_id smallint [U]</text>
<text text-anchor="start" x="556.5" y="-24.3" font-family="Times,serif" font-size="14.00">&#45; continent_id smallint [U]</text>
</g>
<!-- node18&#45;&gt;node22 -->
<g id="edge10" class="edge">
<title>node18&#45;&gt;node22</title>
<path fill="none" stroke="black" d="M660,-129.16C660,-120.41 660,-111.38 660,-102.77"/>
<polygon fill="black" stroke="black" points="663.5,-102.52 660,-92.52 656.5,-102.52 663.5,-102.52"/>
</g>
<!-- node25 -->
<g id="node21" class="node">
<title>node25</title>
<polygon fill="white" stroke="black" points="342,-24 342,-85 530,-85 530,-24 342,-24"/>
<text text-anchor="middle" x="436" y="-69.8" font-family="Times,serif" font-size="14.00">mv_overreplicated_total</text>
<polyline fill="none" stroke="black" points="342,-62 530,-62 "/>
<text text-anchor="start" x="350" y="-46.8" font-family="Times,serif" font-size="14.00">&#45; piece_id bigint [U]</text>
<text text-anchor="start" x="350" y="-31.8" font-family="Times,serif" font-size="14.00">&#45; tenant_id smallint [U]</text>
</g>
<!-- node18&#45;&gt;node25 -->
<g id="edge11" class="edge">
<title>node18&#45;&gt;node25</title>
<path fill="none" stroke="black" d="M567.27,-129.34C543.68,-116.07 518.92,-102.14 497.33,-90"/>
<polygon fill="black" stroke="black" points="499.04,-86.94 488.6,-85.09 495.6,-93.04 499.04,-86.94"/>
</g>
<!-- node23 -->
<g id="node22" class="node">
<title>node23</title>
<polygon fill="white" stroke="black" points="790,-16.5 790,-92.5 1000,-92.5 1000,-16.5 790,-16.5"/>
<text text-anchor="middle" x="895" y="-77.3" font-family="Times,serif" font-size="14.00">mv_overreplicated_country</text>
<polyline fill="none" stroke="black" points="790,-69.5 1000,-69.5 "/>
<text text-anchor="start" x="798" y="-54.3" font-family="Times,serif" font-size="14.00">&#45; piece_id bigint [U]</text>
<text text-anchor="start" x="798" y="-39.3" font-family="Times,serif" font-size="14.00">&#45; tenant_id smallint [U]</text>
<text text-anchor="start" x="798" y="-24.3" font-family="Times,serif" font-size="14.00">&#45; country_id smallint [U]</text>
</g>
<!-- node19&#45;&gt;node23 -->
<g id="edge12" class="edge">
<title>node19&#45;&gt;node23</title>
<path fill="none" stroke="black" d="M889.74,-129.16C890.36,-120.41 891.01,-111.38 891.62,-102.77"/>
<polygon fill="black" stroke="black" points="895.13,-102.74 892.36,-92.52 888.15,-102.24 895.13,-102.74"/>
</g>
<!-- node24 -->
<g id="node23" class="node">
<title>node24</title>
<polygon fill="white" stroke="black" points="1018,-16.5 1018,-92.5 1200,-92.5 1200,-16.5 1018,-16.5"/>
<text text-anchor="middle" x="1109" y="-77.3" font-family="Times,serif" font-size="14.00">mv_overreplicated_org</text>
<polyline fill="none" stroke="black" points="1018,-69.5 1200,-69.5 "/>
<text text-anchor="start" x="1026" y="-54.3" font-family="Times,serif" font-size="14.00">&#45; piece_id bigint [U]</text>
<text text-anchor="start" x="1026" y="-39.3" font-family="Times,serif" font-size="14.00">&#45; tenant_id smallint [U]</text>
<text text-anchor="start" x="1026" y="-24.3" font-family="Times,serif" font-size="14.00">&#45; org_id smallint [U]</text>
</g>
<!-- node20&#45;&gt;node24 -->
<g id="edge13" class="edge">
<title>node20&#45;&gt;node24</title>
<path fill="none" stroke="black" d="M1105.49,-129.16C1105.91,-120.41 1106.34,-111.38 1106.75,-102.77"/>
<polygon fill="black" stroke="black" points="1110.26,-102.67 1107.24,-92.52 1103.27,-102.34 1110.26,-102.67"/>
</g>
<!-- node26 -->
<g id="node26" class="node">
<title>node26</title>
<polygon fill="white" stroke="black" points="426.5,-317.5 426.5,-408.5 623.5,-408.5 623.5,-317.5 426.5,-317.5"/>
<text text-anchor="middle" x="525" y="-393.3" font-family="Times,serif" font-size="14.00">clients_datacap_available</text>
<polyline fill="none" stroke="black" points="426.5,-385.5 623.5,-385.5 "/>
<text text-anchor="start" x="434.5" y="-370.3" font-family="Times,serif" font-size="14.00">&#45; client_id</text>
<text text-anchor="start" x="434.5" y="-355.3" font-family="Times,serif" font-size="14.00">&#45; client_address</text>
<text text-anchor="start" x="434.5" y="-340.3" font-family="Times,serif" font-size="14.00">&#45; tenant_id</text>
<text text-anchor="start" x="434.5" y="-325.3" font-family="Times,serif" font-size="14.00">&#45; datacap_available</text>
</g>
<!-- node27 -->
<g id="node27" class="node">
<title>node27</title>
<polygon fill="white" stroke="black" points="244,-272.5 244,-453.5 408,-453.5 408,-272.5 244,-272.5"/>
<text text-anchor="middle" x="326" y="-438.3" font-family="Times,serif" font-size="14.00">known_deals_ranked</text>
<polyline fill="none" stroke="black" points="244,-430.5 408,-430.5 "/>
<text text-anchor="start" x="252" y="-415.3" font-family="Times,serif" font-size="14.00">&#45; intra_sp_rank</text>
<text text-anchor="start" x="252" y="-400.3" font-family="Times,serif" font-size="14.00">&#45; deal_id</text>
<text text-anchor="start" x="252" y="-385.3" font-family="Times,serif" font-size="14.00">&#45; piece_id</text>
<text text-anchor="start" x="252" y="-370.3" font-family="Times,serif" font-size="14.00">&#45; provider_id</text>
<text text-anchor="start" x="252" y="-355.3" font-family="Times,serif" font-size="14.00">&#45; client_id</text>
<text text-anchor="start" x="252" y="-340.3" font-family="Times,serif" font-size="14.00">&#45; end_epoch</text>
<text text-anchor="start" x="252" y="-325.3" font-family="Times,serif" font-size="14.00">&#45; state</text>
<text text-anchor="start" x="252" y="-310.3" font-family="Times,serif" font-size="14.00">&#45; is_filplus</text>
<text text-anchor="start" x="252" y="-295.3" font-family="Times,serif" font-size="14.00">&#45; proposal_label</text>
<text text-anchor="start" x="252" y="-280.3" font-family="Times,serif" font-size="14.00">&#45; claimant_ids</text>
</g>
<!-- node28 -->
<g id="node28" class="node">
<title>node28</title>
<polygon fill="white" stroke="black" points="16,-295 16,-431 226,-431 226,-295 16,-295"/>
<text text-anchor="middle" x="121" y="-415.8" font-family="Times,serif" font-size="14.00">known_fildag_deals_ranked</text>
<polyline fill="none" stroke="black" points="16,-408 226,-408 "/>
<text text-anchor="start" x="24" y="-392.8" font-family="Times,serif" font-size="14.00">&#45; piece_id</text>
<text text-anchor="start" x="24" y="-377.8" font-family="Times,serif" font-size="14.00">&#45; deal_id</text>
<text text-anchor="start" x="24" y="-362.8" font-family="Times,serif" font-size="14.00">&#45; end_epoch</text>
<text text-anchor="start" x="24" y="-347.8" font-family="Times,serif" font-size="14.00">&#45; provider_id</text>
<text text-anchor="start" x="24" y="-332.8" font-family="Times,serif" font-size="14.00">&#45; is_filplus</text>
<text text-anchor="start" x="24" y="-317.8" font-family="Times,serif" font-size="14.00">&#45; proposal_label</text>
<text text-anchor="start" x="24" y="-302.8" font-family="Times,serif" font-size="14.00">&#45; rank</text>
</g>
</g>
</svg>
