<?xml version="1.0" encoding="UTF-8" standalone="no"?>
<!DOCTYPE svg PUBLIC "-//W3C//DTD SVG 1.1//EN"
 "http://www.w3.org/Graphics/SVG/1.1/DTD/svg11.dtd">
<!-- Generated by graphviz version 2.43.0 (0)
 -->
<!-- Title: test Pages: 1 -->
<svg width="2187pt" height="1427pt"
 viewBox="0.00 0.00 2186.50 1427.00" xmlns="http://www.w3.org/2000/svg" xmlns:xlink="http://www.w3.org/1999/xlink">
<g id="graph0" class="graph" transform="scale(1 1) rotate(0) translate(4 1423)">
<title>test</title>
<polygon fill="white" stroke="transparent" points="-4,4 -4,-1423 2182.5,-1423 2182.5,4 -4,4"/>
<g id="clust1" class="cluster">
<title>cluster_views</title>
<polygon fill="none" stroke="black" points="8,-8 8,-575 1623,-575 1623,-8 8,-8"/>
<text text-anchor="middle" x="815.5" y="-559.8" font-family="Times,serif" font-size="14.00">views</text>
</g>
<!-- node1 -->
<g id="node1" class="node">
<title>node1</title>
<polygon fill="white" stroke="black" points="892,-1342.5 892,-1418.5 1080,-1418.5 1080,-1342.5 892,-1342.5"/>
<text text-anchor="middle" x="986" y="-1403.3" font-family="Times,serif" font-size="14.00">datasets</text>
<polyline fill="none" stroke="black" points="892,-1395.5 1080,-1395.5 "/>
<text text-anchor="start" x="900" y="-1380.3" font-family="Times,serif" font-size="14.00">&#45; dataset_id smallint [U]</text>
<text text-anchor="start" x="900" y="-1365.3" font-family="Times,serif" font-size="14.00">&#45; dataset_slug text [U]</text>
<text text-anchor="start" x="900" y="-1350.3" font-family="Times,serif" font-size="14.00">&#45; dataset_meta jsonb</text>
</g>
<!-- node9 -->
<g id="node8" class="node">
<title>node9</title>
<polygon fill="white" stroke="black" points="740.5,-951.5 740.5,-1027.5 953.5,-1027.5 953.5,-951.5 740.5,-951.5"/>
<text text-anchor="middle" x="847" y="-1012.3" font-family="Times,serif" font-size="14.00">datasets_pieces</text>
<polyline fill="none" stroke="black" points="740.5,-1004.5 953.5,-1004.5 "/>
<text text-anchor="start" x="748.5" y="-989.3" font-family="Times,serif" font-size="14.00">&#45; piece_id bigint [FK,U]</text>
<text text-anchor="start" x="748.5" y="-974.3" font-family="Times,serif" font-size="14.00">&#45; dataset_id smallint [FK,U]</text>
<text text-anchor="start" x="748.5" y="-959.3" font-family="Times,serif" font-size="14.00">&#45; dataset_piece_meta jsonb</text>
</g>
<!-- node1&#45;&gt;node9 -->
<g id="edge3" class="edge">
<title>node1&#45;&gt;node9</title>
<path fill="none" stroke="black" d="M891.8,-1360.62C862.16,-1349.76 832.6,-1332.72 815,-1306 760.88,-1223.83 797.92,-1102.63 825.21,-1036.94"/>
<polygon fill="black" stroke="black" points="828.46,-1038.23 829.16,-1027.66 822.02,-1035.49 828.46,-1038.23"/>
</g>
<!-- node10 -->
<g id="node9" class="node">
<title>node10</title>
<polygon fill="white" stroke="black" points="1066,-1192 1066,-1268 1284,-1268 1284,-1192 1066,-1192"/>
<text text-anchor="middle" x="1175" y="-1252.8" font-family="Times,serif" font-size="14.00">tenants_datasets</text>
<polyline fill="none" stroke="black" points="1066,-1245 1284,-1245 "/>
<text text-anchor="start" x="1074" y="-1229.8" font-family="Times,serif" font-size="14.00">&#45; tenant_id smallint [FK,U]</text>
<text text-anchor="start" x="1074" y="-1214.8" font-family="Times,serif" font-size="14.00">&#45; dataset_id smallint [FK,U]</text>
<text text-anchor="start" x="1074" y="-1199.8" font-family="Times,serif" font-size="14.00">&#45; tenant_dataset_meta jsonb</text>
</g>
<!-- node1&#45;&gt;node10 -->
<g id="edge4" class="edge">
<title>node1&#45;&gt;node10</title>
<path fill="none" stroke="black" d="M1033.21,-1342.41C1059.48,-1321.77 1092.32,-1295.96 1119.78,-1274.39"/>
<polygon fill="black" stroke="black" points="1122.04,-1277.06 1127.74,-1268.13 1117.72,-1271.56 1122.04,-1277.06"/>
</g>
<!-- node2 -->
<g id="node2" class="node">
<title>node2</title>
<polygon fill="white" stroke="black" points="1514,-1350 1514,-1411 1726,-1411 1726,-1350 1514,-1350"/>
<text text-anchor="middle" x="1620" y="-1395.8" font-family="Times,serif" font-size="14.00">global</text>
<polyline fill="none" stroke="black" points="1514,-1388 1726,-1388 "/>
<text text-anchor="start" x="1522" y="-1372.8" font-family="Times,serif" font-size="14.00">&#45; singleton_row boolean [U]</text>
<text text-anchor="start" x="1522" y="-1357.8" font-family="Times,serif" font-size="14.00">&#45; metadata jsonb</text>
</g>
<!-- node3 -->
<g id="node3" class="node">
<title>node3</title>
<polygon fill="white" stroke="black" points="824,-1177 824,-1283 1048,-1283 1048,-1177 824,-1177"/>
<text text-anchor="middle" x="936" y="-1267.8" font-family="Times,serif" font-size="14.00">pieces</text>
<polyline fill="none" stroke="black" points="824,-1260 1048,-1260 "/>
<text text-anchor="start" x="832" y="-1244.8" font-family="Times,serif" font-size="14.00">&#45; piece_id bigint [U]</text>
<text text-anchor="start" x="832" y="-1229.8" font-family="Times,serif" font-size="14.00">&#45; piece_cid text [U]</text>
<text text-anchor="start" x="832" y="-1214.8" font-family="Times,serif" font-size="14.00">&#45; piece_log2_size smallint [U]</text>
<text text-anchor="start" x="832" y="-1199.8" font-family="Times,serif" font-size="14.00">&#45; proposal_label text [N]</text>
<text text-anchor="start" x="832" y="-1184.8" font-family="Times,serif" font-size="14.00">&#45; piece_meta jsonb</text>
</g>
<!-- node3&#45;&gt;node9 -->
<g id="edge14" class="edge">
<title>node3&#45;&gt;node9</title>
<path fill="none" stroke="black" d="M916.58,-1176.95C901.03,-1135.3 879.42,-1077.39 864.43,-1037.21"/>
<polygon fill="black" stroke="black" points="867.64,-1035.79 860.86,-1027.65 861.08,-1038.24 867.64,-1035.79"/>
</g>
<!-- node12 -->
<g id="node11" class="node">
<title>node12</title>
<polygon fill="white" stroke="black" points="997,-861.5 997,-1117.5 1313,-1117.5 1313,-861.5 997,-861.5"/>
<text text-anchor="middle" x="1155" y="-1102.3" font-family="Times,serif" font-size="14.00">published_deals</text>
<polyline fill="none" stroke="black" points="997,-1094.5 1313,-1094.5 "/>
<text text-anchor="start" x="1005" y="-1079.3" font-family="Times,serif" font-size="14.00">&#45; deal_id bigint [U]</text>
<text text-anchor="start" x="1005" y="-1064.3" font-family="Times,serif" font-size="14.00">&#45; piece_id bigint [FK]</text>
<text text-anchor="start" x="1005" y="-1049.3" font-family="Times,serif" font-size="14.00">&#45; piece_cid text [FK]</text>
<text text-anchor="start" x="1005" y="-1034.3" font-family="Times,serif" font-size="14.00">&#45; claimed_log2_size smallint</text>
<text text-anchor="start" x="1005" y="-1019.3" font-family="Times,serif" font-size="14.00">&#45; provider_id integer [FK]</text>
<text text-anchor="start" x="1005" y="-1004.3" font-family="Times,serif" font-size="14.00">&#45; client_id integer [FK]</text>
<text text-anchor="start" x="1005" y="-989.3" font-family="Times,serif" font-size="14.00">&#45; label bytea</text>
<text text-anchor="start" x="1005" y="-974.3" font-family="Times,serif" font-size="14.00">&#45; decoded_label text [N]</text>
<text text-anchor="start" x="1005" y="-959.3" font-family="Times,serif" font-size="14.00">&#45; is_filplus boolean</text>
<text text-anchor="start" x="1005" y="-944.3" font-family="Times,serif" font-size="14.00">&#45; status text</text>
<text text-anchor="start" x="1005" y="-929.3" font-family="Times,serif" font-size="14.00">&#45; published_deal_meta jsonb</text>
<text text-anchor="start" x="1005" y="-914.3" font-family="Times,serif" font-size="14.00">&#45; start_epoch integer</text>
<text text-anchor="start" x="1005" y="-899.3" font-family="Times,serif" font-size="14.00">&#45; end_epoch integer</text>
<text text-anchor="start" x="1005" y="-884.3" font-family="Times,serif" font-size="14.00">&#45; sector_start_epoch integer [N]</text>
<text text-anchor="start" x="1005" y="-869.3" font-family="Times,serif" font-size="14.00">&#45; entry_created timestamp with time zone</text>
</g>
<!-- node3&#45;&gt;node12 -->
<g id="edge16" class="edge">
<title>node3&#45;&gt;node12</title>
<path fill="none" stroke="black" d="M983.79,-1176.95C998,-1161.48 1014.26,-1143.77 1030.98,-1125.56"/>
<polygon fill="black" stroke="black" points="1033.99,-1127.46 1038.17,-1117.73 1028.83,-1122.73 1033.99,-1127.46"/>
</g>
<!-- node15 -->
<g id="node13" class="node">
<title>node15</title>
<polygon fill="white" stroke="black" points="1182.5,-583.5 1182.5,-824.5 1563.5,-824.5 1563.5,-583.5 1182.5,-583.5"/>
<text text-anchor="middle" x="1373" y="-809.3" font-family="Times,serif" font-size="14.00">proposals</text>
<polyline fill="none" stroke="black" points="1182.5,-801.5 1563.5,-801.5 "/>
<text text-anchor="start" x="1190.5" y="-786.3" font-family="Times,serif" font-size="14.00">&#45; proposal_uuid uuid [U]</text>
<text text-anchor="start" x="1190.5" y="-771.3" font-family="Times,serif" font-size="14.00">&#45; piece_id bigint [FK,U]</text>
<text text-anchor="start" x="1190.5" y="-756.3" font-family="Times,serif" font-size="14.00">&#45; entry_created timestamp with time zone</text>
<text text-anchor="start" x="1190.5" y="-741.3" font-family="Times,serif" font-size="14.00">&#45; signature_obtained timestamp with time zone [N]</text>
<text text-anchor="start" x="1190.5" y="-726.3" font-family="Times,serif" font-size="14.00">&#45; proposal_delivered timestamp with time zone [N]</text>
<text text-anchor="start" x="1190.5" y="-711.3" font-family="Times,serif" font-size="14.00">&#45; activated_deal_id bigint [FK,U,N]</text>
<text text-anchor="start" x="1190.5" y="-696.3" font-family="Times,serif" font-size="14.00">&#45; proposal_failstamp bigint [U]</text>
<text text-anchor="start" x="1190.5" y="-681.3" font-family="Times,serif" font-size="14.00">&#45; entry_last_updated timestamp with time zone</text>
<text text-anchor="start" x="1190.5" y="-666.3" font-family="Times,serif" font-size="14.00">&#45; provider_id integer [FK,U]</text>
<text text-anchor="start" x="1190.5" y="-651.3" font-family="Times,serif" font-size="14.00">&#45; client_id integer [FK]</text>
<text text-anchor="start" x="1190.5" y="-636.3" font-family="Times,serif" font-size="14.00">&#45; start_epoch integer</text>
<text text-anchor="start" x="1190.5" y="-621.3" font-family="Times,serif" font-size="14.00">&#45; end_epoch integer</text>
<text text-anchor="start" x="1190.5" y="-606.3" font-family="Times,serif" font-size="14.00">&#45; proxied_log2_size smallint [FK]</text>
<text text-anchor="start" x="1190.5" y="-591.3" font-family="Times,serif" font-size="14.00">&#45; proposal_meta jsonb</text>
</g>
<!-- node3&#45;&gt;node15 -->
<g id="edge15" class="edge">
<title>node3&#45;&gt;node15</title>
<path fill="none" stroke="black" d="M1009.35,-1176.83C1024.53,-1167.99 1040.83,-1159.81 1057,-1154 1112.93,-1133.9 1280.23,-1160.28 1322,-1118 1360.58,-1078.95 1371.33,-940.71 1373.69,-834.82"/>
<polygon fill="black" stroke="black" points="1377.19,-834.75 1373.9,-824.68 1370.2,-834.61 1377.19,-834.75"/>
</g>
<!-- node4 -->
<g id="node4" class="node">
<title>node4</title>
<polygon fill="white" stroke="black" points="1526,-1154.5 1526,-1305.5 1764,-1305.5 1764,-1154.5 1526,-1154.5"/>
<text text-anchor="middle" x="1645" y="-1290.3" font-family="Times,serif" font-size="14.00">providers</text>
<polyline fill="none" stroke="black" points="1526,-1282.5 1764,-1282.5 "/>
<text text-anchor="start" x="1534" y="-1267.3" font-family="Times,serif" font-size="14.00">&#45; provider_id integer [U]</text>
<text text-anchor="start" x="1534" y="-1252.3" font-family="Times,serif" font-size="14.00">&#45; org_id smallint</text>
<text text-anchor="start" x="1534" y="-1237.3" font-family="Times,serif" font-size="14.00">&#45; city_id smallint</text>
<text text-anchor="start" x="1534" y="-1222.3" font-family="Times,serif" font-size="14.00">&#45; country_id smallint</text>
<text text-anchor="start" x="1534" y="-1207.3" font-family="Times,serif" font-size="14.00">&#45; continent_id smallint</text>
<text text-anchor="start" x="1534" y="-1192.3" font-family="Times,serif" font-size="14.00">&#45; sector_log2_size smallint</text>
<text text-anchor="start" x="1534" y="-1177.3" font-family="Times,serif" font-size="14.00">&#45; can_seal_64g_sectors boolean</text>
<text text-anchor="start" x="1534" y="-1162.3" font-family="Times,serif" font-size="14.00">&#45; provider_meta jsonb</text>
</g>
<!-- node8 -->
<g id="node7" class="node">
<title>node8</title>
<polygon fill="white" stroke="black" points="1619,-936.5 1619,-1042.5 1935,-1042.5 1935,-936.5 1619,-936.5"/>
<text text-anchor="middle" x="1777" y="-1027.3" font-family="Times,serif" font-size="14.00">requests</text>
<polyline fill="none" stroke="black" points="1619,-1019.5 1935,-1019.5 "/>
<text text-anchor="start" x="1627" y="-1004.3" font-family="Times,serif" font-size="14.00">&#45; provider_id integer [FK]</text>
<text text-anchor="start" x="1627" y="-989.3" font-family="Times,serif" font-size="14.00">&#45; request_uuid uuid [U]</text>
<text text-anchor="start" x="1627" y="-974.3" font-family="Times,serif" font-size="14.00">&#45; entry_created timestamp with time zone</text>
<text text-anchor="start" x="1627" y="-959.3" font-family="Times,serif" font-size="14.00">&#45; request_dump jsonb</text>
<text text-anchor="start" x="1627" y="-944.3" font-family="Times,serif" font-size="14.00">&#45; request_meta jsonb</text>
</g>
<!-- node4&#45;&gt;node8 -->
<g id="edge21" class="edge">
<title>node4&#45;&gt;node8</title>
<path fill="none" stroke="black" d="M1686.4,-1154.19C1704.64,-1121.24 1725.8,-1083.01 1743.08,-1051.79"/>
<polygon fill="black" stroke="black" points="1746.3,-1053.2 1748.08,-1042.76 1740.17,-1049.81 1746.3,-1053.2"/>
</g>
<!-- node11 -->
<g id="node10" class="node">
<title>node11</title>
<polygon fill="white" stroke="black" points="1953.5,-951.5 1953.5,-1027.5 2178.5,-1027.5 2178.5,-951.5 1953.5,-951.5"/>
<text text-anchor="middle" x="2066" y="-1012.3" font-family="Times,serif" font-size="14.00">tenants_providers</text>
<polyline fill="none" stroke="black" points="1953.5,-1004.5 2178.5,-1004.5 "/>
<text text-anchor="start" x="1961.5" y="-989.3" font-family="Times,serif" font-size="14.00">&#45; provider_id integer [FK,U]</text>
<text text-anchor="start" x="1961.5" y="-974.3" font-family="Times,serif" font-size="14.00">&#45; tenant_id smallint [FK,U]</text>
<text text-anchor="start" x="1961.5" y="-959.3" font-family="Times,serif" font-size="14.00">&#45; tenant_provider_meta jsonb</text>
</g>
<!-- node4&#45;&gt;node11 -->
<g id="edge22" class="edge">
<title>node4&#45;&gt;node11</title>
<path fill="none" stroke="black" d="M1764.02,-1198.41C1821.32,-1180.39 1889.28,-1153.96 1944,-1118 1977.9,-1095.72 2009.38,-1062.37 2031.86,-1035.37"/>
<polygon fill="black" stroke="black" points="2034.62,-1037.53 2038.25,-1027.57 2029.21,-1033.09 2034.62,-1037.53"/>
</g>
<!-- node4&#45;&gt;node12 -->
<g id="edge20" class="edge">
<title>node4&#45;&gt;node12</title>
<path fill="none" stroke="black" d="M1526,-1158.72C1522.98,-1157.11 1519.97,-1155.54 1517,-1154 1454.51,-1121.69 1384.34,-1089.17 1322.53,-1061.74"/>
<polygon fill="black" stroke="black" points="1323.64,-1058.4 1313.08,-1057.55 1320.81,-1064.8 1323.64,-1058.4"/>
</g>
<!-- node4&#45;&gt;node15 -->
<g id="edge19" class="edge">
<title>node4&#45;&gt;node15</title>
<path fill="none" stroke="black" d="M1597.98,-1154.31C1590.77,-1142.28 1583.55,-1129.87 1577,-1118 1525.47,-1024.62 1472.27,-916.45 1433.12,-834.25"/>
<polygon fill="black" stroke="black" points="1436.11,-832.39 1428.66,-824.86 1429.79,-835.39 1436.11,-832.39"/>
</g>
<!-- node7 -->
<g id="node24" class="node">
<title>node7</title>
<polygon fill="white" stroke="black" points="1441.5,-377.5 1441.5,-438.5 1614.5,-438.5 1614.5,-377.5 1441.5,-377.5"/>
<text text-anchor="middle" x="1528" y="-423.3" font-family="Times,serif" font-size="14.00">mv_orglocal_presence</text>
<polyline fill="none" stroke="black" points="1441.5,-415.5 1614.5,-415.5 "/>
<text text-anchor="start" x="1449.5" y="-400.3" font-family="Times,serif" font-size="14.00">&#45; piece_id bigint [U]</text>
<text text-anchor="start" x="1449.5" y="-385.3" font-family="Times,serif" font-size="14.00">&#45; org_id smallint [U]</text>
</g>
<!-- node4&#45;&gt;node7 -->
<g id="edge18" class="edge">
<title>node4&#45;&gt;node7</title>
<path fill="none" stroke="black" d="M1618.84,-1154.38C1615.38,-1142.34 1612.26,-1129.91 1610,-1118 1565.63,-883.82 1611.22,-818.26 1573,-583 1565.37,-536.05 1550.87,-483.31 1540.39,-448.33"/>
<polygon fill="black" stroke="black" points="1543.66,-447.07 1537.41,-438.51 1536.96,-449.1 1543.66,-447.07"/>
</g>
<!-- node5 -->
<g id="node5" class="node">
<title>node5</title>
<polygon fill="white" stroke="black" points="1314,-1342.5 1314,-1418.5 1496,-1418.5 1496,-1342.5 1314,-1342.5"/>
<text text-anchor="middle" x="1405" y="-1403.3" font-family="Times,serif" font-size="14.00">tenants</text>
<polyline fill="none" stroke="black" points="1314,-1395.5 1496,-1395.5 "/>
<text text-anchor="start" x="1322" y="-1380.3" font-family="Times,serif" font-size="14.00">&#45; tenant_id smallint [U]</text>
<text text-anchor="start" x="1322" y="-1365.3" font-family="Times,serif" font-size="14.00">&#45; tenant_name text [U]</text>
<text text-anchor="start" x="1322" y="-1350.3" font-family="Times,serif" font-size="14.00">&#45; tenant_meta jsonb</text>
</g>
<!-- node6 -->
<g id="node6" class="node">
<title>node6</title>
<polygon fill="white" stroke="black" points="1302,-1184.5 1302,-1275.5 1508,-1275.5 1508,-1184.5 1302,-1184.5"/>
<text text-anchor="middle" x="1405" y="-1260.3" font-family="Times,serif" font-size="14.00">clients</text>
<polyline fill="none" stroke="black" points="1302,-1252.5 1508,-1252.5 "/>
<text text-anchor="start" x="1310" y="-1237.3" font-family="Times,serif" font-size="14.00">&#45; client_id integer [U]</text>
<text text-anchor="start" x="1310" y="-1222.3" font-family="Times,serif" font-size="14.00">&#45; tenant_id smallint [FK,N]</text>
<text text-anchor="start" x="1310" y="-1207.3" font-family="Times,serif" font-size="14.00">&#45; client_address text [U,N]</text>
<text text-anchor="start" x="1310" y="-1192.3" font-family="Times,serif" font-size="14.00">&#45; client_meta jsonb</text>
</g>
<!-- node5&#45;&gt;node6 -->
<g id="edge27" class="edge">
<title>node5&#45;&gt;node6</title>
<path fill="none" stroke="black" d="M1405,-1342.41C1405,-1325.3 1405,-1304.65 1405,-1285.8"/>
<polygon fill="none" stroke="black" points="1408.5,-1285.55 1405,-1275.55 1401.5,-1285.55 1408.5,-1285.55"/>
</g>
<!-- node5&#45;&gt;node10 -->
<g id="edge28" class="edge">
<title>node5&#45;&gt;node10</title>
<path fill="none" stroke="black" d="M1347.55,-1342.41C1315.17,-1321.5 1274.59,-1295.3 1240.91,-1273.56"/>
<polygon fill="black" stroke="black" points="1242.81,-1270.62 1232.51,-1268.13 1239.01,-1276.5 1242.81,-1270.62"/>
</g>
<!-- node5&#45;&gt;node11 -->
<g id="edge29" class="edge">
<title>node5&#45;&gt;node11</title>
<path fill="none" stroke="black" d="M1496.02,-1344.4C1499.03,-1343.55 1502.03,-1342.75 1505,-1342 1621.56,-1312.72 1666.29,-1361.28 1773,-1306 1895.05,-1242.78 1992.94,-1107.6 2038.4,-1036.45"/>
<polygon fill="black" stroke="black" points="2041.56,-1038.01 2043.95,-1027.69 2035.64,-1034.27 2041.56,-1038.01"/>
</g>
<!-- node6&#45;&gt;node12 -->
<g id="edge2" class="edge">
<title>node6&#45;&gt;node12</title>
<path fill="none" stroke="black" d="M1358.27,-1184.42C1340.1,-1167.08 1318.23,-1146.22 1295.68,-1124.7"/>
<polygon fill="black" stroke="black" points="1297.98,-1122.07 1288.33,-1117.7 1293.15,-1127.13 1297.98,-1122.07"/>
</g>
<!-- node6&#45;&gt;node15 -->
<g id="edge1" class="edge">
<title>node6&#45;&gt;node15</title>
<path fill="none" stroke="black" d="M1402.27,-1184.32C1397.6,-1107.75 1387.88,-948.67 1380.93,-834.78"/>
<polygon fill="black" stroke="black" points="1384.41,-834.36 1380.3,-824.59 1377.42,-834.79 1384.41,-834.36"/>
</g>
<!-- node13 -->
<g id="node12" class="node">
<title>node13</title>
<polygon fill="white" stroke="black" points="932.5,-673.5 932.5,-734.5 1127.5,-734.5 1127.5,-673.5 932.5,-673.5"/>
<text text-anchor="middle" x="1030" y="-719.3" font-family="Times,serif" font-size="14.00">invalidated_deals</text>
<polyline fill="none" stroke="black" points="932.5,-711.5 1127.5,-711.5 "/>
<text text-anchor="start" x="940.5" y="-696.3" font-family="Times,serif" font-size="14.00">&#45; deal_id bigint [FK,U]</text>
<text text-anchor="start" x="940.5" y="-681.3" font-family="Times,serif" font-size="14.00">&#45; invalidation_meta jsonb</text>
</g>
<!-- node12&#45;&gt;node13 -->
<g id="edge23" class="edge">
<title>node12&#45;&gt;node13</title>
<path fill="none" stroke="black" d="M1098.9,-861.26C1080.16,-818.76 1060.64,-774.5 1047.19,-743.98"/>
<polygon fill="black" stroke="black" points="1050.28,-742.31 1043.04,-734.57 1043.87,-745.13 1050.28,-742.31"/>
</g>
<!-- node12&#45;&gt;node15 -->
<g id="edge26" class="edge">
<title>node12&#45;&gt;node15</title>
<path fill="none" stroke="black" d="M1252.84,-861.26C1260.18,-851.72 1267.59,-842.08 1274.93,-832.54"/>
<polygon fill="none" stroke="black" points="1277.76,-834.6 1281.08,-824.54 1272.21,-830.34 1277.76,-834.6"/>
</g>
<!-- node16 -->
<g id="node14" class="node">
<title>node16</title>
<polygon fill="white" stroke="black" points="835.5,-362.5 835.5,-453.5 1098.5,-453.5 1098.5,-362.5 835.5,-362.5"/>
<text text-anchor="middle" x="967" y="-438.3" font-family="Times,serif" font-size="14.00">mv_deals_prefiltered_for_repcount</text>
<polyline fill="none" stroke="black" points="835.5,-430.5 1098.5,-430.5 "/>
<text text-anchor="start" x="843.5" y="-415.3" font-family="Times,serif" font-size="14.00">&#45; piece_id bigint [U]</text>
<text text-anchor="start" x="843.5" y="-400.3" font-family="Times,serif" font-size="14.00">&#45; provider_id integer [U]</text>
<text text-anchor="start" x="843.5" y="-385.3" font-family="Times,serif" font-size="14.00">&#45; is_filplus boolean [U]</text>
<text text-anchor="start" x="843.5" y="-370.3" font-family="Times,serif" font-size="14.00">&#45; claimant_id integer [U]</text>
</g>
<!-- node12&#45;&gt;node16 -->
<g id="edge24" class="edge">
<title>node12&#45;&gt;node16</title>
<path fill="none" stroke="black" d="M996.85,-884.91C959.14,-858.62 928.18,-834.98 923,-825 861.97,-707.33 910.33,-545.98 943.12,-463.06"/>
<polygon fill="black" stroke="black" points="946.45,-464.17 946.94,-453.58 939.96,-461.55 946.45,-464.17"/>
</g>
<!-- node14 -->
<g id="node25" class="node">
<title>node14</title>
<polygon fill="white" stroke="black" points="1116.5,-317.5 1116.5,-498.5 1423.5,-498.5 1423.5,-317.5 1116.5,-317.5"/>
<text text-anchor="middle" x="1270" y="-483.3" font-family="Times,serif" font-size="14.00">mv_pieces_availability</text>
<polyline fill="none" stroke="black" points="1116.5,-475.5 1423.5,-475.5 "/>
<text text-anchor="start" x="1124.5" y="-460.3" font-family="Times,serif" font-size="14.00">&#45; display_sort bigint</text>
<text text-anchor="start" x="1124.5" y="-445.3" font-family="Times,serif" font-size="14.00">&#45; piece_id bigint [U]</text>
<text text-anchor="start" x="1124.5" y="-430.3" font-family="Times,serif" font-size="14.00">&#45; coarse_latest_active_end_epoch integer</text>
<text text-anchor="start" x="1124.5" y="-415.3" font-family="Times,serif" font-size="14.00">&#45; piece_log2_size smallint</text>
<text text-anchor="start" x="1124.5" y="-400.3" font-family="Times,serif" font-size="14.00">&#45; requires_64g_sector boolean</text>
<text text-anchor="start" x="1124.5" y="-385.3" font-family="Times,serif" font-size="14.00">&#45; http_available boolean</text>
<text text-anchor="start" x="1124.5" y="-370.3" font-family="Times,serif" font-size="14.00">&#45; piece_cid text</text>
<text text-anchor="start" x="1124.5" y="-355.3" font-family="Times,serif" font-size="14.00">&#45; proposal_label text</text>
<text text-anchor="start" x="1124.5" y="-340.3" font-family="Times,serif" font-size="14.00">&#45; potential_tenant_ids smallint[]</text>
<text text-anchor="start" x="1124.5" y="-325.3" font-family="Times,serif" font-size="14.00">&#45; has_sources boolean</text>
</g>
<!-- node12&#45;&gt;node14 -->
<g id="edge25" class="edge">
<title>node12&#45;&gt;node14</title>
<path fill="none" stroke="black" d="M1146.32,-861.46C1144.32,-780.32 1148.36,-673.71 1174,-583 1181.24,-557.39 1192.83,-531.41 1205.5,-507.62"/>
<polygon fill="black" stroke="black" points="1208.7,-509.06 1210.4,-498.61 1202.55,-505.72 1208.7,-509.06"/>
</g>
<!-- node15&#45;&gt;node16 -->
<g id="edge17" class="edge">
<title>node15&#45;&gt;node16</title>
<path fill="none" stroke="black" d="M1182.34,-602.58C1166.82,-595.6 1151.24,-588.97 1136,-583 1123.95,-578.28 1118.88,-582.01 1108,-575 1063.27,-546.18 1025.12,-498.88 999.82,-462.13"/>
<polygon fill="black" stroke="black" points="1002.49,-459.83 993.98,-453.51 996.69,-463.76 1002.49,-459.83"/>
</g>
<!-- node17 -->
<g id="node15" class="node">
<title>node17</title>
<polygon fill="white" stroke="black" points="440,-129.5 440,-235.5 634,-235.5 634,-129.5 440,-129.5"/>
<text text-anchor="middle" x="537" y="-220.3" font-family="Times,serif" font-size="14.00">mv_replicas_city</text>
<polyline fill="none" stroke="black" points="440,-212.5 634,-212.5 "/>
<text text-anchor="start" x="448" y="-197.3" font-family="Times,serif" font-size="14.00">&#45; piece_id bigint [U]</text>
<text text-anchor="start" x="448" y="-182.3" font-family="Times,serif" font-size="14.00">&#45; claimant_id integer [U]</text>
<text text-anchor="start" x="448" y="-167.3" font-family="Times,serif" font-size="14.00">&#45; city_id smallint [U]</text>
<text text-anchor="start" x="448" y="-152.3" font-family="Times,serif" font-size="14.00">&#45; replicas_filplus smallint</text>
<text text-anchor="start" x="448" y="-137.3" font-family="Times,serif" font-size="14.00">&#45; replicas_any smallint</text>
</g>
<!-- node16&#45;&gt;node17 -->
<g id="edge5" class="edge">
<title>node16&#45;&gt;node17</title>
<path fill="none" stroke="black" d="M930.46,-362.47C904.16,-333.04 866.34,-295.66 826,-272 794.67,-253.62 712.71,-229.24 644.04,-210.72"/>
<polygon fill="black" stroke="black" points="644.57,-207.24 634.01,-208.03 642.76,-214 644.57,-207.24"/>
</g>
<!-- node18 -->
<g id="node16" class="node">
<title>node18</title>
<polygon fill="white" stroke="black" points="756.5,-129.5 756.5,-235.5 959.5,-235.5 959.5,-129.5 756.5,-129.5"/>
<text text-anchor="middle" x="858" y="-220.3" font-family="Times,serif" font-size="14.00">mv_replicas_continent</text>
<polyline fill="none" stroke="black" points="756.5,-212.5 959.5,-212.5 "/>
<text text-anchor="start" x="764.5" y="-197.3" font-family="Times,serif" font-size="14.00">&#45; piece_id bigint [U]</text>
<text text-anchor="start" x="764.5" y="-182.3" font-family="Times,serif" font-size="14.00">&#45; claimant_id integer [U]</text>
<text text-anchor="start" x="764.5" y="-167.3" font-family="Times,serif" font-size="14.00">&#45; continent_id smallint [U]</text>
<text text-anchor="start" x="764.5" y="-152.3" font-family="Times,serif" font-size="14.00">&#45; replicas_filplus smallint</text>
<text text-anchor="start" x="764.5" y="-137.3" font-family="Times,serif" font-size="14.00">&#45; replicas_any smallint</text>
</g>
<!-- node16&#45;&gt;node18 -->
<g id="edge6" class="edge">
<title>node16&#45;&gt;node18</title>
<path fill="none" stroke="black" d="M945.2,-362.31C928.77,-328.6 906.03,-281.99 887.9,-244.8"/>
<polygon fill="black" stroke="black" points="890.92,-243.02 883.39,-235.56 884.63,-246.08 890.92,-243.02"/>
</g>
<!-- node19 -->
<g id="node17" class="node">
<title>node19</title>
<polygon fill="white" stroke="black" points="987,-129.5 987,-235.5 1181,-235.5 1181,-129.5 987,-129.5"/>
<text text-anchor="middle" x="1084" y="-220.3" font-family="Times,serif" font-size="14.00">mv_replicas_country</text>
<polyline fill="none" stroke="black" points="987,-212.5 1181,-212.5 "/>
<text text-anchor="start" x="995" y="-197.3" font-family="Times,serif" font-size="14.00">&#45; piece_id bigint [U]</text>
<text text-anchor="start" x="995" y="-182.3" font-family="Times,serif" font-size="14.00">&#45; claimant_id integer [U]</text>
<text text-anchor="start" x="995" y="-167.3" font-family="Times,serif" font-size="14.00">&#45; country_id smallint [U]</text>
<text text-anchor="start" x="995" y="-152.3" font-family="Times,serif" font-size="14.00">&#45; replicas_filplus smallint</text>
<text text-anchor="start" x="995" y="-137.3" font-family="Times,serif" font-size="14.00">&#45; replicas_any smallint</text>
</g>
<!-- node16&#45;&gt;node19 -->
<g id="edge7" class="edge">
<title>node16&#45;&gt;node19</title>
<path fill="none" stroke="black" d="M990.4,-362.31C1008.04,-328.6 1032.44,-281.99 1051.91,-244.8"/>
<polygon fill="black" stroke="black" points="1055.21,-246.05 1056.75,-235.56 1049.01,-242.8 1055.21,-246.05"/>
</g>
<!-- node20 -->
<g id="node18" class="node">
<title>node20</title>
<polygon fill="white" stroke="black" points="1200,-129.5 1200,-235.5 1394,-235.5 1394,-129.5 1200,-129.5"/>
<text text-anchor="middle" x="1297" y="-220.3" font-family="Times,serif" font-size="14.00">mv_replicas_org</text>
<polyline fill="none" stroke="black" points="1200,-212.5 1394,-212.5 "/>
<text text-anchor="start" x="1208" y="-197.3" font-family="Times,serif" font-size="14.00">&#45; piece_id bigint [U]</text>
<text text-anchor="start" x="1208" y="-182.3" font-family="Times,serif" font-size="14.00">&#45; claimant_id integer [U]</text>
<text text-anchor="start" x="1208" y="-167.3" font-family="Times,serif" font-size="14.00">&#45; org_id smallint [U]</text>
<text text-anchor="start" x="1208" y="-152.3" font-family="Times,serif" font-size="14.00">&#45; replicas_filplus smallint</text>
<text text-anchor="start" x="1208" y="-137.3" font-family="Times,serif" font-size="14.00">&#45; replicas_any smallint</text>
</g>
<!-- node16&#45;&gt;node20 -->
<g id="edge8" class="edge">
<title>node16&#45;&gt;node20</title>
<path fill="none" stroke="black" d="M1005.93,-362.37C1032.54,-333.83 1069.81,-297.5 1108,-272 1141.1,-249.9 1153.9,-252.77 1190,-236 1190.31,-235.86 1190.62,-235.71 1190.92,-235.57"/>
<polygon fill="black" stroke="black" points="1192.41,-238.74 1199.98,-231.32 1189.44,-232.4 1192.41,-238.74"/>
</g>
<!-- node21 -->
<g id="node19" class="node">
<title>node21</title>
<polygon fill="white" stroke="black" points="340,-16.5 340,-92.5 522,-92.5 522,-16.5 340,-16.5"/>
<text text-anchor="middle" x="431" y="-77.3" font-family="Times,serif" font-size="14.00">mv_overreplicated_city</text>
<polyline fill="none" stroke="black" points="340,-69.5 522,-69.5 "/>
<text text-anchor="start" x="348" y="-54.3" font-family="Times,serif" font-size="14.00">&#45; piece_id bigint [U]</text>
<text text-anchor="start" x="348" y="-39.3" font-family="Times,serif" font-size="14.00">&#45; tenant_id smallint [U]</text>
<text text-anchor="start" x="348" y="-24.3" font-family="Times,serif" font-size="14.00">&#45; city_id smallint [U]</text>
</g>
<!-- node17&#45;&gt;node21 -->
<g id="edge9" class="edge">
<title>node17&#45;&gt;node21</title>
<path fill="none" stroke="black" d="M492.97,-129.16C484.88,-119.55 476.5,-109.59 468.63,-100.23"/>
<polygon fill="black" stroke="black" points="471.26,-97.92 462.14,-92.52 465.9,-102.42 471.26,-97.92"/>
</g>
<!-- node22 -->
<g id="node20" class="node">
<title>node22</title>
<polygon fill="white" stroke="black" points="746.5,-16.5 746.5,-92.5 969.5,-92.5 969.5,-16.5 746.5,-16.5"/>
<text text-anchor="middle" x="858" y="-77.3" font-family="Times,serif" font-size="14.00">mv_overreplicated_continent</text>
<polyline fill="none" stroke="black" points="746.5,-69.5 969.5,-69.5 "/>
<text text-anchor="start" x="754.5" y="-54.3" font-family="Times,serif" font-size="14.00">&#45; piece_id bigint [U]</text>
<text text-anchor="start" x="754.5" y="-39.3" font-family="Times,serif" font-size="14.00">&#45; tenant_id smallint [U]</text>
<text text-anchor="start" x="754.5" y="-24.3" font-family="Times,serif" font-size="14.00">&#45; continent_id smallint [U]</text>
</g>
<!-- node18&#45;&gt;node22 -->
<g id="edge10" class="edge">
<title>node18&#45;&gt;node22</title>
<path fill="none" stroke="black" d="M858,-129.16C858,-120.41 858,-111.38 858,-102.77"/>
<polygon fill="black" stroke="black" points="861.5,-102.52 858,-92.52 854.5,-102.52 861.5,-102.52"/>
</g>
<!-- node25 -->
<g id="node21" class="node">
<title>node25</title>
<polygon fill="white" stroke="black" points="540,-24 540,-85 728,-85 728,-24 540,-24"/>
<text text-anchor="middle" x="634" y="-69.8" font-family="Times,serif" font-size="14.00">mv_overreplicated_total</text>
<polyline fill="none" stroke="black" points="540,-62 728,-62 "/>
<text text-anchor="start" x="548" y="-46.8" font-family="Times,serif" font-size="14.00">&#45; piece_id bigint [U]</text>
<text text-anchor="start" x="548" y="-31.8" font-family="Times,serif" font-size="14.00">&#45; tenant_id smallint [U]</text>
</g>
<!-- node18&#45;&gt;node25 -->
<g id="edge11" class="edge">
<title>node18&#45;&gt;node25</title>
<path fill="none" stroke="black" d="M765.27,-129.34C741.68,-116.07 716.92,-102.14 695.33,-90"/>
<polygon fill="black" stroke="black" points="697.04,-86.94 686.6,-85.09 693.6,-93.04 697.04,-86.94"/>
</g>
<!-- node23 -->
<g id="node22" class="node">
<title>node23</title>
<polygon fill="white" stroke="black" points="988,-16.5 988,-92.5 1198,-92.5 1198,-16.5 988,-16.5"/>
<text text-anchor="middle" x="1093" y="-77.3" font-family="Times,serif" font-size="14.00">mv_overreplicated_country</text>
<polyline fill="none" stroke="black" points="988,-69.5 1198,-69.5 "/>
<text text-anchor="start" x="996" y="-54.3" font-family="Times,serif" font-size="14.00">&#45; piece_id bigint [U]</text>
<text text-anchor="start" x="996" y="-39.3" font-family="Times,serif" font-size="14.00">&#45; tenant_id smallint [U]</text>
<text text-anchor="start" x="996" y="-24.3" font-family="Times,serif" font-size="14.00">&#45; country_id smallint [U]</text>
</g>
<!-- node19&#45;&gt;node23 -->
<g id="edge12" class="edge">
<title>node19&#45;&gt;node23</title>
<path fill="none" stroke="black" d="M1087.74,-129.16C1088.36,-120.41 1089.01,-111.38 1089.62,-102.77"/>
<polygon fill="black" stroke="black" points="1093.13,-102.74 1090.36,-92.52 1086.15,-102.24 1093.13,-102.74"/>
</g>
<!-- node24 -->
<g id="node23" class="node">
<title>node24</title>
<polygon fill="white" stroke="black" points="1216,-16.5 1216,-92.5 1398,-92.5 1398,-16.5 1216,-16.5"/>
<text text-anchor="middle" x="1307" y="-77.3" font-family="Times,serif" font-size="14.00">mv_overreplicated_org</text>
<polyline fill="none" stroke="black" points="1216,-69.5 1398,-69.5 "/>
<text text-anchor="start" x="1224" y="-54.3" font-family="Times,serif" font-size="14.00">&#45; piece_id bigint [U]</text>
<text text-anchor="start" x="1224" y="-39.3" font-family="Times,serif" font-size="14.00">&#45; tenant_id smallint [U]</text>
<text text-anchor="start" x="1224" y="-24.3" font-family="Times,serif" font-size="14.00">&#45; org_id smallint [U]</text>
</g>
<!-- node20&#45;&gt;node24 -->
<g id="edge13" class="edge">
<title>node20&#45;&gt;node24</title>
<path fill="none" stroke="black" d="M1301.15,-129.16C1301.85,-120.41 1302.57,-111.38 1303.25,-102.77"/>
<polygon fill="black" stroke="black" points="1306.76,-102.76 1304.06,-92.52 1299.78,-102.21 1306.76,-102.76"/>
</g>
<!-- node26 -->
<g id="node26" class="node">
<title>node26</title>
<polygon fill="white" stroke="black" points="620.5,-362.5 620.5,-453.5 817.5,-453.5 817.5,-362.5 620.5,-362.5"/>
<text text-anchor="middle" x="719" y="-438.3" font-family="Times,serif" font-size="14.00">clients_datacap_available</text>
<polyline fill="none" stroke="black" points="620.5,-430.5 817.5,-430.5 "/>
<text text-anchor="start" x="628.5" y="-415.3" font-family="Times,serif" font-size="14.00">&#45; client_id</text>
<text text-anchor="start" x="628.5" y="-400.3" font-family="Times,serif" font-size="14.00">&#45; client_address</text>
<text text-anchor="start" x="628.5" y="-385.3" font-family="Times,serif" font-size="14.00">&#45; tenant_id</text>
<text text-anchor="start" x="628.5" y="-370.3" font-family="Times,serif" font-size="14.00">&#45; datacap_available</text>
</g>
<!-- node27 -->
<g id="node27" class="node">
<title>node27</title>
<polygon fill="white" stroke="black" points="438,-317.5 438,-498.5 602,-498.5 602,-317.5 438,-317.5"/>
<text text-anchor="middle" x="520" y="-483.3" font-family="Times,serif" font-size="14.00">known_deals_ranked</text>
<polyline fill="none" stroke="black" points="438,-475.5 602,-475.5 "/>
<text text-anchor="start" x="446" y="-460.3" font-family="Times,serif" font-size="14.00">&#45; intra_sp_rank</text>
<text text-anchor="start" x="446" y="-445.3" font-family="Times,serif" font-size="14.00">&#45; deal_id</text>
<text text-anchor="start" x="446" y="-430.3" font-family="Times,serif" font-size="14.00">&#45; piece_id</text>
<text text-anchor="start" x="446" y="-415.3" font-family="Times,serif" font-size="14.00">&#45; provider_id</text>
<text text-anchor="start" x="446" y="-400.3" font-family="Times,serif" font-size="14.00">&#45; client_id</text>
<text text-anchor="start" x="446" y="-385.3" font-family="Times,serif" font-size="14.00">&#45; end_epoch</text>
<text text-anchor="start" x="446" y="-370.3" font-family="Times,serif" font-size="14.00">&#45; state</text>
<text text-anchor="start" x="446" y="-355.3" font-family="Times,serif" font-size="14.00">&#45; is_filplus</text>
<text text-anchor="start" x="446" y="-340.3" font-family="Times,serif" font-size="14.00">&#45; proposal_label</text>
<text text-anchor="start" x="446" y="-325.3" font-family="Times,serif" font-size="14.00">&#45; claimant_ids</text>
</g>
<!-- node28 -->
<g id="node28" class="node">
<title>node28</title>
<polygon fill="white" stroke="black" points="210,-340 210,-476 420,-476 420,-340 210,-340"/>
<text text-anchor="middle" x="315" y="-460.8" font-family="Times,serif" font-size="14.00">known_fildag_deals_ranked</text>
<polyline fill="none" stroke="black" points="210,-453 420,-453 "/>
<text text-anchor="start" x="218" y="-437.8" font-family="Times,serif" font-size="14.00">&#45; piece_id</text>
<text text-anchor="start" x="218" y="-422.8" font-family="Times,serif" font-size="14.00">&#45; deal_id</text>
<text text-anchor="start" x="218" y="-407.8" font-family="Times,serif" font-size="14.00">&#45; end_epoch</text>
<text text-anchor="start" x="218" y="-392.8" font-family="Times,serif" font-size="14.00">&#45; provider_id</text>
<text text-anchor="start" x="218" y="-377.8" font-family="Times,serif" font-size="14.00">&#45; is_filplus</text>
<text text-anchor="start" x="218" y="-362.8" font-family="Times,serif" font-size="14.00">&#45; proposal_label</text>
<text text-anchor="start" x="218" y="-347.8" font-family="Times,serif" font-size="14.00">&#45; rank</text>
</g>
<!-- node29 -->
<g id="node29" class="node">
<title>node29</title>
<polygon fill="white" stroke="black" points="16,-272.5 16,-543.5 192,-543.5 192,-272.5 16,-272.5"/>
<text text-anchor="middle" x="104" y="-528.3" font-family="Times,serif" font-size="14.00">known_missized_deals</text>
<polyline fill="none" stroke="black" points="16,-520.5 192,-520.5 "/>
<text text-anchor="start" x="24" y="-505.3" font-family="Times,serif" font-size="14.00">&#45; deal_id</text>
<text text-anchor="start" x="24" y="-490.3" font-family="Times,serif" font-size="14.00">&#45; piece_id</text>
<text text-anchor="start" x="24" y="-475.3" font-family="Times,serif" font-size="14.00">&#45; piece_cid</text>
<text text-anchor="start" x="24" y="-460.3" font-family="Times,serif" font-size="14.00">&#45; claimed_log2_size</text>
<text text-anchor="start" x="24" y="-445.3" font-family="Times,serif" font-size="14.00">&#45; provider_id</text>
<text text-anchor="start" x="24" y="-430.3" font-family="Times,serif" font-size="14.00">&#45; client_id</text>
<text text-anchor="start" x="24" y="-415.3" font-family="Times,serif" font-size="14.00">&#45; label</text>
<text text-anchor="start" x="24" y="-400.3" font-family="Times,serif" font-size="14.00">&#45; decoded_label</text>
<text text-anchor="start" x="24" y="-385.3" font-family="Times,serif" font-size="14.00">&#45; is_filplus</text>
<text text-anchor="start" x="24" y="-370.3" font-family="Times,serif" font-size="14.00">&#45; status</text>
<text text-anchor="start" x="24" y="-355.3" font-family="Times,serif" font-size="14.00">&#45; published_deal_meta</text>
<text text-anchor="start" x="24" y="-340.3" font-family="Times,serif" font-size="14.00">&#45; start_epoch</text>
<text text-anchor="start" x="24" y="-325.3" font-family="Times,serif" font-size="14.00">&#45; end_epoch</text>
<text text-anchor="start" x="24" y="-310.3" font-family="Times,serif" font-size="14.00">&#45; sector_start_epoch</text>
<text text-anchor="start" x="24" y="-295.3" font-family="Times,serif" font-size="14.00">&#45; entry_created</text>
<text text-anchor="start" x="24" y="-280.3" font-family="Times,serif" font-size="14.00">&#45; proven_log2_size</text>
</g>
</g>
</svg>
