<?xml version="1.0" encoding="UTF-8" standalone="no"?>
<!DOCTYPE svg PUBLIC "-//W3C//DTD SVG 1.1//EN"
 "http://www.w3.org/Graphics/SVG/1.1/DTD/svg11.dtd">
<!-- Generated by graphviz version 2.43.0 (0)
 -->
<!-- Title: test Pages: 1 -->
<svg width="2601pt" height="1397pt"
 viewBox="0.00 0.00 2600.50 1397.00" xmlns="http://www.w3.org/2000/svg" xmlns:xlink="http://www.w3.org/1999/xlink">
<g id="graph0" class="graph" transform="scale(1 1) rotate(0) translate(4 1393)">
<title>test</title>
<polygon fill="white" stroke="transparent" points="-4,4 -4,-1393 2596.5,-1393 2596.5,4 -4,4"/>
<g id="clust1" class="cluster">
<title>cluster_views</title>
<polygon fill="none" stroke="black" points="8,-8 8,-575 1623,-575 1623,-8 8,-8"/>
<text text-anchor="middle" x="815.5" y="-559.8" font-family="Times,serif" font-size="14.00">views</text>
</g>
<!-- node1 -->
<g id="node1" class="node">
<title>node1</title>
<polygon fill="white" stroke="black" points="772,-1312.5 772,-1388.5 960,-1388.5 960,-1312.5 772,-1312.5"/>
<text text-anchor="middle" x="866" y="-1373.3" font-family="Times,serif" font-size="14.00">datasets</text>
<polyline fill="none" stroke="black" points="772,-1365.5 960,-1365.5 "/>
<text text-anchor="start" x="780" y="-1350.3" font-family="Times,serif" font-size="14.00">&#45; dataset_id smallint [U]</text>
<text text-anchor="start" x="780" y="-1335.3" font-family="Times,serif" font-size="14.00">&#45; dataset_slug text [U]</text>
<text text-anchor="start" x="780" y="-1320.3" font-family="Times,serif" font-size="14.00">&#45; dataset_meta jsonb</text>
</g>
<!-- node8 -->
<g id="node8" class="node">
<title>node8</title>
<polygon fill="white" stroke="black" points="569.5,-951.5 569.5,-1027.5 782.5,-1027.5 782.5,-951.5 569.5,-951.5"/>
<text text-anchor="middle" x="676" y="-1012.3" font-family="Times,serif" font-size="14.00">datasets_pieces</text>
<polyline fill="none" stroke="black" points="569.5,-1004.5 782.5,-1004.5 "/>
<text text-anchor="start" x="577.5" y="-989.3" font-family="Times,serif" font-size="14.00">&#45; piece_id bigint [FK,U]</text>
<text text-anchor="start" x="577.5" y="-974.3" font-family="Times,serif" font-size="14.00">&#45; dataset_id smallint [FK,U]</text>
<text text-anchor="start" x="577.5" y="-959.3" font-family="Times,serif" font-size="14.00">&#45; dataset_piece_meta jsonb</text>
</g>
<!-- node1&#45;&gt;node8 -->
<g id="edge3" class="edge">
<title>node1&#45;&gt;node8</title>
<path fill="none" stroke="black" d="M771.89,-1329.61C742.63,-1318.68 713.29,-1301.85 695,-1276 645.1,-1205.46 654.24,-1098.98 665.22,-1037.96"/>
<polygon fill="black" stroke="black" points="668.72,-1038.32 667.14,-1027.84 661.84,-1037.01 668.72,-1038.32"/>
</g>
<!-- node12 -->
<g id="node11" class="node">
<title>node12</title>
<polygon fill="white" stroke="black" points="946,-1177 946,-1253 1164,-1253 1164,-1177 946,-1177"/>
<text text-anchor="middle" x="1055" y="-1237.8" font-family="Times,serif" font-size="14.00">tenants_datasets</text>
<polyline fill="none" stroke="black" points="946,-1230 1164,-1230 "/>
<text text-anchor="start" x="954" y="-1214.8" font-family="Times,serif" font-size="14.00">&#45; tenant_id smallint [FK,U]</text>
<text text-anchor="start" x="954" y="-1199.8" font-family="Times,serif" font-size="14.00">&#45; dataset_id smallint [FK,U]</text>
<text text-anchor="start" x="954" y="-1184.8" font-family="Times,serif" font-size="14.00">&#45; tenant_dataset_meta jsonb</text>
</g>
<!-- node1&#45;&gt;node12 -->
<g id="edge4" class="edge">
<title>node1&#45;&gt;node12</title>
<path fill="none" stroke="black" d="M918.4,-1312.49C941.85,-1295.92 969.65,-1276.29 994.03,-1259.06"/>
<polygon fill="black" stroke="black" points="996.35,-1261.71 1002.5,-1253.08 992.31,-1255.99 996.35,-1261.71"/>
</g>
<!-- node2 -->
<g id="node2" class="node">
<title>node2</title>
<polygon fill="white" stroke="black" points="1394,-1320 1394,-1381 1606,-1381 1606,-1320 1394,-1320"/>
<text text-anchor="middle" x="1500" y="-1365.8" font-family="Times,serif" font-size="14.00">global</text>
<polyline fill="none" stroke="black" points="1394,-1358 1606,-1358 "/>
<text text-anchor="start" x="1402" y="-1342.8" font-family="Times,serif" font-size="14.00">&#45; singleton_row boolean [U]</text>
<text text-anchor="start" x="1402" y="-1327.8" font-family="Times,serif" font-size="14.00">&#45; metadata jsonb</text>
</g>
<!-- node3 -->
<g id="node3" class="node">
<title>node3</title>
<polygon fill="white" stroke="black" points="704,-1162 704,-1268 928,-1268 928,-1162 704,-1162"/>
<text text-anchor="middle" x="816" y="-1252.8" font-family="Times,serif" font-size="14.00">pieces</text>
<polyline fill="none" stroke="black" points="704,-1245 928,-1245 "/>
<text text-anchor="start" x="712" y="-1229.8" font-family="Times,serif" font-size="14.00">&#45; piece_id bigint [U]</text>
<text text-anchor="start" x="712" y="-1214.8" font-family="Times,serif" font-size="14.00">&#45; piece_cid text [U]</text>
<text text-anchor="start" x="712" y="-1199.8" font-family="Times,serif" font-size="14.00">&#45; piece_log2_size smallint [U]</text>
<text text-anchor="start" x="712" y="-1184.8" font-family="Times,serif" font-size="14.00">&#45; proposal_label text [N]</text>
<text text-anchor="start" x="712" y="-1169.8" font-family="Times,serif" font-size="14.00">&#45; piece_meta jsonb</text>
</g>
<!-- node3&#45;&gt;node8 -->
<g id="edge14" class="edge">
<title>node3&#45;&gt;node8</title>
<path fill="none" stroke="black" d="M783.35,-1161.88C759.49,-1123.79 727.44,-1072.62 704.59,-1036.13"/>
<polygon fill="black" stroke="black" points="707.55,-1034.27 699.28,-1027.66 701.62,-1037.99 707.55,-1034.27"/>
</g>
<!-- node14 -->
<g id="node13" class="node">
<title>node14</title>
<polygon fill="white" stroke="black" points="800,-861.5 800,-1117.5 1116,-1117.5 1116,-861.5 800,-861.5"/>
<text text-anchor="middle" x="958" y="-1102.3" font-family="Times,serif" font-size="14.00">published_deals</text>
<polyline fill="none" stroke="black" points="800,-1094.5 1116,-1094.5 "/>
<text text-anchor="start" x="808" y="-1079.3" font-family="Times,serif" font-size="14.00">&#45; deal_id bigint [U]</text>
<text text-anchor="start" x="808" y="-1064.3" font-family="Times,serif" font-size="14.00">&#45; piece_id bigint [FK]</text>
<text text-anchor="start" x="808" y="-1049.3" font-family="Times,serif" font-size="14.00">&#45; piece_cid text [FK]</text>
<text text-anchor="start" x="808" y="-1034.3" font-family="Times,serif" font-size="14.00">&#45; claimed_log2_size smallint</text>
<text text-anchor="start" x="808" y="-1019.3" font-family="Times,serif" font-size="14.00">&#45; provider_id integer [FK]</text>
<text text-anchor="start" x="808" y="-1004.3" font-family="Times,serif" font-size="14.00">&#45; client_id integer [FK]</text>
<text text-anchor="start" x="808" y="-989.3" font-family="Times,serif" font-size="14.00">&#45; label bytea</text>
<text text-anchor="start" x="808" y="-974.3" font-family="Times,serif" font-size="14.00">&#45; decoded_label text [N]</text>
<text text-anchor="start" x="808" y="-959.3" font-family="Times,serif" font-size="14.00">&#45; is_filplus boolean</text>
<text text-anchor="start" x="808" y="-944.3" font-family="Times,serif" font-size="14.00">&#45; status text</text>
<text text-anchor="start" x="808" y="-929.3" font-family="Times,serif" font-size="14.00">&#45; published_deal_meta jsonb</text>
<text text-anchor="start" x="808" y="-914.3" font-family="Times,serif" font-size="14.00">&#45; start_epoch integer</text>
<text text-anchor="start" x="808" y="-899.3" font-family="Times,serif" font-size="14.00">&#45; end_epoch integer</text>
<text text-anchor="start" x="808" y="-884.3" font-family="Times,serif" font-size="14.00">&#45; sector_start_epoch integer [N]</text>
<text text-anchor="start" x="808" y="-869.3" font-family="Times,serif" font-size="14.00">&#45; entry_created timestamp with time zone</text>
</g>
<!-- node3&#45;&gt;node14 -->
<g id="edge16" class="edge">
<title>node3&#45;&gt;node14</title>
<path fill="none" stroke="black" d="M849.11,-1161.88C856.11,-1150.88 863.79,-1138.78 871.74,-1126.26"/>
<polygon fill="black" stroke="black" points="874.88,-1127.86 877.29,-1117.54 868.97,-1124.1 874.88,-1127.86"/>
</g>
<!-- node17 -->
<g id="node15" class="node">
<title>node17</title>
<polygon fill="white" stroke="black" points="1010.5,-583.5 1010.5,-824.5 1391.5,-824.5 1391.5,-583.5 1010.5,-583.5"/>
<text text-anchor="middle" x="1201" y="-809.3" font-family="Times,serif" font-size="14.00">proposals</text>
<polyline fill="none" stroke="black" points="1010.5,-801.5 1391.5,-801.5 "/>
<text text-anchor="start" x="1018.5" y="-786.3" font-family="Times,serif" font-size="14.00">&#45; proposal_uuid uuid [U]</text>
<text text-anchor="start" x="1018.5" y="-771.3" font-family="Times,serif" font-size="14.00">&#45; piece_id bigint [FK,U]</text>
<text text-anchor="start" x="1018.5" y="-756.3" font-family="Times,serif" font-size="14.00">&#45; entry_created timestamp with time zone</text>
<text text-anchor="start" x="1018.5" y="-741.3" font-family="Times,serif" font-size="14.00">&#45; signature_obtained timestamp with time zone [N]</text>
<text text-anchor="start" x="1018.5" y="-726.3" font-family="Times,serif" font-size="14.00">&#45; proposal_delivered timestamp with time zone [N]</text>
<text text-anchor="start" x="1018.5" y="-711.3" font-family="Times,serif" font-size="14.00">&#45; activated_deal_id bigint [FK,U,N]</text>
<text text-anchor="start" x="1018.5" y="-696.3" font-family="Times,serif" font-size="14.00">&#45; proposal_failstamp bigint [U]</text>
<text text-anchor="start" x="1018.5" y="-681.3" font-family="Times,serif" font-size="14.00">&#45; entry_last_updated timestamp with time zone</text>
<text text-anchor="start" x="1018.5" y="-666.3" font-family="Times,serif" font-size="14.00">&#45; provider_id integer [FK,U]</text>
<text text-anchor="start" x="1018.5" y="-651.3" font-family="Times,serif" font-size="14.00">&#45; client_id integer [FK]</text>
<text text-anchor="start" x="1018.5" y="-636.3" font-family="Times,serif" font-size="14.00">&#45; start_epoch integer</text>
<text text-anchor="start" x="1018.5" y="-621.3" font-family="Times,serif" font-size="14.00">&#45; end_epoch integer</text>
<text text-anchor="start" x="1018.5" y="-606.3" font-family="Times,serif" font-size="14.00">&#45; proxied_log2_size smallint [FK]</text>
<text text-anchor="start" x="1018.5" y="-591.3" font-family="Times,serif" font-size="14.00">&#45; proposal_meta jsonb</text>
</g>
<!-- node3&#45;&gt;node17 -->
<g id="edge15" class="edge">
<title>node3&#45;&gt;node17</title>
<path fill="none" stroke="black" d="M915.8,-1161.94C922.89,-1159.04 930,-1156.36 937,-1154 1017.63,-1126.85 1065.06,-1178.37 1125,-1118 1126.29,-1116.7 1155.74,-955.21 1177.6,-834.58"/>
<polygon fill="black" stroke="black" points="1181.08,-834.97 1179.42,-824.5 1174.19,-833.72 1181.08,-834.97"/>
</g>
<!-- node4 -->
<g id="node4" class="node">
<title>node4</title>
<polygon fill="white" stroke="black" points="1194,-1312.5 1194,-1388.5 1376,-1388.5 1376,-1312.5 1194,-1312.5"/>
<text text-anchor="middle" x="1285" y="-1373.3" font-family="Times,serif" font-size="14.00">tenants</text>
<polyline fill="none" stroke="black" points="1194,-1365.5 1376,-1365.5 "/>
<text text-anchor="start" x="1202" y="-1350.3" font-family="Times,serif" font-size="14.00">&#45; tenant_id smallint [U]</text>
<text text-anchor="start" x="1202" y="-1335.3" font-family="Times,serif" font-size="14.00">&#45; tenant_name text [U]</text>
<text text-anchor="start" x="1202" y="-1320.3" font-family="Times,serif" font-size="14.00">&#45; tenant_meta jsonb</text>
</g>
<!-- node5 -->
<g id="node5" class="node">
<title>node5</title>
<polygon fill="white" stroke="black" points="1182,-1169.5 1182,-1260.5 1388,-1260.5 1388,-1169.5 1182,-1169.5"/>
<text text-anchor="middle" x="1285" y="-1245.3" font-family="Times,serif" font-size="14.00">clients</text>
<polyline fill="none" stroke="black" points="1182,-1237.5 1388,-1237.5 "/>
<text text-anchor="start" x="1190" y="-1222.3" font-family="Times,serif" font-size="14.00">&#45; client_id integer [U]</text>
<text text-anchor="start" x="1190" y="-1207.3" font-family="Times,serif" font-size="14.00">&#45; tenant_id smallint [FK,N]</text>
<text text-anchor="start" x="1190" y="-1192.3" font-family="Times,serif" font-size="14.00">&#45; client_address text [U,N]</text>
<text text-anchor="start" x="1190" y="-1177.3" font-family="Times,serif" font-size="14.00">&#45; client_meta jsonb</text>
</g>
<!-- node4&#45;&gt;node5 -->
<g id="edge30" class="edge">
<title>node4&#45;&gt;node5</title>
<path fill="none" stroke="black" d="M1285,-1312.31C1285,-1299.4 1285,-1284.64 1285,-1270.61"/>
<polygon fill="none" stroke="black" points="1288.5,-1270.57 1285,-1260.57 1281.5,-1270.57 1288.5,-1270.57"/>
</g>
<!-- node4&#45;&gt;node12 -->
<g id="edge31" class="edge">
<title>node4&#45;&gt;node12</title>
<path fill="none" stroke="black" d="M1221.24,-1312.49C1192.2,-1295.63 1157.68,-1275.6 1127.64,-1258.16"/>
<polygon fill="black" stroke="black" points="1129.29,-1255.07 1118.89,-1253.08 1125.78,-1261.13 1129.29,-1255.07"/>
</g>
<!-- node13 -->
<g id="node12" class="node">
<title>node13</title>
<polygon fill="white" stroke="black" points="2367.5,-951.5 2367.5,-1027.5 2592.5,-1027.5 2592.5,-951.5 2367.5,-951.5"/>
<text text-anchor="middle" x="2480" y="-1012.3" font-family="Times,serif" font-size="14.00">tenants_providers</text>
<polyline fill="none" stroke="black" points="2367.5,-1004.5 2592.5,-1004.5 "/>
<text text-anchor="start" x="2375.5" y="-989.3" font-family="Times,serif" font-size="14.00">&#45; provider_id integer [FK,U]</text>
<text text-anchor="start" x="2375.5" y="-974.3" font-family="Times,serif" font-size="14.00">&#45; tenant_id smallint [FK,U]</text>
<text text-anchor="start" x="2375.5" y="-959.3" font-family="Times,serif" font-size="14.00">&#45; tenant_provider_meta jsonb</text>
</g>
<!-- node4&#45;&gt;node13 -->
<g id="edge32" class="edge">
<title>node4&#45;&gt;node13</title>
<path fill="none" stroke="black" d="M1376.26,-1314.19C1379.19,-1313.4 1382.11,-1312.67 1385,-1312 1545.95,-1274.67 1592.38,-1305.2 1755,-1276 2025.57,-1227.42 2114.83,-1255.27 2353,-1118 2389.22,-1097.13 2422.27,-1063.25 2445.57,-1035.66"/>
<polygon fill="black" stroke="black" points="2448.49,-1037.62 2452.18,-1027.69 2443.1,-1033.15 2448.49,-1037.62"/>
</g>
<!-- node5&#45;&gt;node14 -->
<g id="edge2" class="edge">
<title>node5&#45;&gt;node14</title>
<path fill="none" stroke="black" d="M1219.61,-1169.31C1192.04,-1150.46 1158.55,-1127.57 1124.87,-1104.55"/>
<polygon fill="black" stroke="black" points="1126.54,-1101.46 1116.31,-1098.7 1122.59,-1107.23 1126.54,-1101.46"/>
</g>
<!-- node5&#45;&gt;node17 -->
<g id="edge1" class="edge">
<title>node5&#45;&gt;node17</title>
<path fill="none" stroke="black" d="M1237.67,-1169.25C1224.94,-1154.3 1212.82,-1136.65 1206,-1118 1172.95,-1027.55 1173.2,-918.35 1180.91,-834.96"/>
<polygon fill="black" stroke="black" points="1184.4,-835.21 1181.88,-824.92 1177.43,-834.53 1184.4,-835.21"/>
</g>
<!-- node6 -->
<g id="node6" class="node">
<title>node6</title>
<polygon fill="white" stroke="black" points="1556,-1154.5 1556,-1275.5 1746,-1275.5 1746,-1154.5 1556,-1154.5"/>
<text text-anchor="middle" x="1651" y="-1260.3" font-family="Times,serif" font-size="14.00">providers</text>
<polyline fill="none" stroke="black" points="1556,-1252.5 1746,-1252.5 "/>
<text text-anchor="start" x="1564" y="-1237.3" font-family="Times,serif" font-size="14.00">&#45; provider_id integer [U]</text>
<text text-anchor="start" x="1564" y="-1222.3" font-family="Times,serif" font-size="14.00">&#45; org_id smallint</text>
<text text-anchor="start" x="1564" y="-1207.3" font-family="Times,serif" font-size="14.00">&#45; city_id smallint</text>
<text text-anchor="start" x="1564" y="-1192.3" font-family="Times,serif" font-size="14.00">&#45; country_id smallint</text>
<text text-anchor="start" x="1564" y="-1177.3" font-family="Times,serif" font-size="14.00">&#45; continent_id smallint</text>
<text text-anchor="start" x="1564" y="-1162.3" font-family="Times,serif" font-size="14.00">&#45; provider_meta jsonb</text>
</g>
<!-- node7 -->
<g id="node7" class="node">
<title>node7</title>
<polygon fill="white" stroke="black" points="1247.5,-929 1247.5,-1050 1608.5,-1050 1608.5,-929 1247.5,-929"/>
<text text-anchor="middle" x="1428" y="-1034.8" font-family="Times,serif" font-size="14.00">providers_info</text>
<polyline fill="none" stroke="black" points="1247.5,-1027 1608.5,-1027 "/>
<text text-anchor="start" x="1255.5" y="-1011.8" font-family="Times,serif" font-size="14.00">&#45; provider_id integer [FK,U]</text>
<text text-anchor="start" x="1255.5" y="-996.8" font-family="Times,serif" font-size="14.00">&#45; provider_last_polled timestamp with time zone</text>
<text text-anchor="start" x="1255.5" y="-981.8" font-family="Times,serif" font-size="14.00">&#45; info_last_updated timestamp with time zone</text>
<text text-anchor="start" x="1255.5" y="-966.8" font-family="Times,serif" font-size="14.00">&#45; info_dialing_took_msecs integer [N]</text>
<text text-anchor="start" x="1255.5" y="-951.8" font-family="Times,serif" font-size="14.00">&#45; info_dialing_peerid text [N]</text>
<text text-anchor="start" x="1255.5" y="-936.8" font-family="Times,serif" font-size="14.00">&#45; info jsonb</text>
</g>
<!-- node6&#45;&gt;node7 -->
<g id="edge20" class="edge">
<title>node6&#45;&gt;node7</title>
<path fill="none" stroke="black" d="M1585.48,-1154.4C1554.88,-1124.59 1518.7,-1088.4 1488.72,-1057.62"/>
<polygon fill="black" stroke="black" points="1491.11,-1055.06 1481.63,-1050.32 1486.09,-1059.93 1491.11,-1055.06"/>
</g>
<!-- node10 -->
<g id="node9" class="node">
<title>node10</title>
<polygon fill="white" stroke="black" points="1627,-936.5 1627,-1042.5 1977,-1042.5 1977,-936.5 1627,-936.5"/>
<text text-anchor="middle" x="1802" y="-1027.3" font-family="Times,serif" font-size="14.00">providers_info_log</text>
<polyline fill="none" stroke="black" points="1627,-1019.5 1977,-1019.5 "/>
<text text-anchor="start" x="1635" y="-1004.3" font-family="Times,serif" font-size="14.00">&#45; provider_id integer [FK]</text>
<text text-anchor="start" x="1635" y="-989.3" font-family="Times,serif" font-size="14.00">&#45; info_entry_created timestamp with time zone</text>
<text text-anchor="start" x="1635" y="-974.3" font-family="Times,serif" font-size="14.00">&#45; info_dialing_took_msecs integer [N]</text>
<text text-anchor="start" x="1635" y="-959.3" font-family="Times,serif" font-size="14.00">&#45; info_dialing_peerid text [N]</text>
<text text-anchor="start" x="1635" y="-944.3" font-family="Times,serif" font-size="14.00">&#45; info jsonb</text>
</g>
<!-- node6&#45;&gt;node10 -->
<g id="edge21" class="edge">
<title>node6&#45;&gt;node10</title>
<path fill="none" stroke="black" d="M1691.27,-1154.4C1712.84,-1122.47 1739.36,-1083.21 1761.04,-1051.13"/>
<polygon fill="black" stroke="black" points="1764.03,-1052.95 1766.73,-1042.71 1758.23,-1049.03 1764.03,-1052.95"/>
</g>
<!-- node11 -->
<g id="node10" class="node">
<title>node11</title>
<polygon fill="white" stroke="black" points="1995,-936.5 1995,-1042.5 2311,-1042.5 2311,-936.5 1995,-936.5"/>
<text text-anchor="middle" x="2153" y="-1027.3" font-family="Times,serif" font-size="14.00">requests</text>
<polyline fill="none" stroke="black" points="1995,-1019.5 2311,-1019.5 "/>
<text text-anchor="start" x="2003" y="-1004.3" font-family="Times,serif" font-size="14.00">&#45; provider_id integer [FK]</text>
<text text-anchor="start" x="2003" y="-989.3" font-family="Times,serif" font-size="14.00">&#45; request_uuid uuid [U]</text>
<text text-anchor="start" x="2003" y="-974.3" font-family="Times,serif" font-size="14.00">&#45; entry_created timestamp with time zone</text>
<text text-anchor="start" x="2003" y="-959.3" font-family="Times,serif" font-size="14.00">&#45; request_dump jsonb</text>
<text text-anchor="start" x="2003" y="-944.3" font-family="Times,serif" font-size="14.00">&#45; request_meta jsonb</text>
</g>
<!-- node6&#45;&gt;node11 -->
<g id="edge23" class="edge">
<title>node6&#45;&gt;node11</title>
<path fill="none" stroke="black" d="M1746.19,-1196.63C1815.22,-1181.71 1909.5,-1156.43 1986,-1118 2022.35,-1099.74 2058.73,-1073.18 2088.21,-1049.03"/>
<polygon fill="black" stroke="black" points="2090.47,-1051.7 2095.94,-1042.63 2086.01,-1046.31 2090.47,-1051.7"/>
</g>
<!-- node6&#45;&gt;node13 -->
<g id="edge24" class="edge">
<title>node6&#45;&gt;node13</title>
<path fill="none" stroke="black" d="M1746.03,-1201.8C1934.66,-1177.49 2339.5,-1124.72 2353,-1118 2391.23,-1098.98 2424.83,-1063.94 2447.85,-1035.4"/>
<polygon fill="black" stroke="black" points="2450.61,-1037.55 2454.06,-1027.54 2445.12,-1033.21 2450.61,-1037.55"/>
</g>
<!-- node6&#45;&gt;node14 -->
<g id="edge22" class="edge">
<title>node6&#45;&gt;node14</title>
<path fill="none" stroke="black" d="M1555.94,-1190.46C1508.34,-1178.95 1449.75,-1165.19 1397,-1154 1312.5,-1136.07 1287.71,-1146.04 1206,-1118 1179.27,-1108.83 1151.84,-1097.21 1125.42,-1084.74"/>
<polygon fill="black" stroke="black" points="1126.65,-1081.45 1116.11,-1080.29 1123.63,-1087.76 1126.65,-1081.45"/>
</g>
<!-- node6&#45;&gt;node17 -->
<g id="edge19" class="edge">
<title>node6&#45;&gt;node17</title>
<path fill="none" stroke="black" d="M1555.76,-1191.31C1508.1,-1180.01 1449.52,-1166.19 1397,-1154 1326.84,-1137.72 1286.45,-1172.18 1239,-1118 1220.48,-1096.85 1210.41,-947.82 1205.38,-834.8"/>
<polygon fill="black" stroke="black" points="1208.87,-834.51 1204.94,-824.67 1201.88,-834.81 1208.87,-834.51"/>
</g>
<!-- node9 -->
<g id="node26" class="node">
<title>node9</title>
<polygon fill="white" stroke="black" points="1441.5,-377.5 1441.5,-438.5 1614.5,-438.5 1614.5,-377.5 1441.5,-377.5"/>
<text text-anchor="middle" x="1528" y="-423.3" font-family="Times,serif" font-size="14.00">mv_orglocal_presence</text>
<polyline fill="none" stroke="black" points="1441.5,-415.5 1614.5,-415.5 "/>
<text text-anchor="start" x="1449.5" y="-400.3" font-family="Times,serif" font-size="14.00">&#45; piece_id bigint [U]</text>
<text text-anchor="start" x="1449.5" y="-385.3" font-family="Times,serif" font-size="14.00">&#45; org_id smallint [U]</text>
</g>
<!-- node6&#45;&gt;node9 -->
<g id="edge18" class="edge">
<title>node6&#45;&gt;node9</title>
<path fill="none" stroke="black" d="M1746.07,-1155.63C1747.71,-1155.06 1749.36,-1154.51 1751,-1154 1811.49,-1135.17 2276.64,-1164.19 2320,-1118 2359.09,-1076.36 2348.68,-910.39 2320,-861 2167.75,-598.82 1800.08,-475.95 1624.49,-430.69"/>
<polygon fill="black" stroke="black" points="1625.29,-427.28 1614.74,-428.2 1623.56,-434.06 1625.29,-427.28"/>
</g>
<!-- node7&#45;&gt;node6 -->
<g id="edge25" class="edge">
<title>node7&#45;&gt;node6</title>
<path fill="none" stroke="black" d="M1493.74,-1050.32C1524.38,-1080.16 1560.55,-1116.36 1590.5,-1147.11"/>
<polygon fill="black" stroke="black" points="1588.1,-1149.67 1597.58,-1154.4 1593.12,-1144.79 1588.1,-1149.67"/>
</g>
<!-- node15 -->
<g id="node14" class="node">
<title>node15</title>
<polygon fill="white" stroke="black" points="760.5,-673.5 760.5,-734.5 955.5,-734.5 955.5,-673.5 760.5,-673.5"/>
<text text-anchor="middle" x="858" y="-719.3" font-family="Times,serif" font-size="14.00">invalidated_deals</text>
<polyline fill="none" stroke="black" points="760.5,-711.5 955.5,-711.5 "/>
<text text-anchor="start" x="768.5" y="-696.3" font-family="Times,serif" font-size="14.00">&#45; deal_id bigint [FK,U]</text>
<text text-anchor="start" x="768.5" y="-681.3" font-family="Times,serif" font-size="14.00">&#45; invalidation_meta jsonb</text>
</g>
<!-- node14&#45;&gt;node15 -->
<g id="edge26" class="edge">
<title>node14&#45;&gt;node15</title>
<path fill="none" stroke="black" d="M913.12,-861.26C898.19,-818.94 882.65,-774.88 871.89,-744.37"/>
<polygon fill="black" stroke="black" points="875.06,-742.84 868.43,-734.57 868.46,-745.17 875.06,-742.84"/>
</g>
<!-- node14&#45;&gt;node17 -->
<g id="edge29" class="edge">
<title>node14&#45;&gt;node17</title>
<path fill="none" stroke="black" d="M1067.06,-861.26C1075.32,-851.62 1083.66,-841.89 1091.93,-832.25"/>
<polygon fill="none" stroke="black" points="1094.69,-834.41 1098.54,-824.54 1089.37,-829.86 1094.69,-834.41"/>
</g>
<!-- node18 -->
<g id="node16" class="node">
<title>node18</title>
<polygon fill="white" stroke="black" points="835.5,-362.5 835.5,-453.5 1098.5,-453.5 1098.5,-362.5 835.5,-362.5"/>
<text text-anchor="middle" x="967" y="-438.3" font-family="Times,serif" font-size="14.00">mv_deals_prefiltered_for_repcount</text>
<polyline fill="none" stroke="black" points="835.5,-430.5 1098.5,-430.5 "/>
<text text-anchor="start" x="843.5" y="-415.3" font-family="Times,serif" font-size="14.00">&#45; piece_id bigint [U]</text>
<text text-anchor="start" x="843.5" y="-400.3" font-family="Times,serif" font-size="14.00">&#45; provider_id integer [U]</text>
<text text-anchor="start" x="843.5" y="-385.3" font-family="Times,serif" font-size="14.00">&#45; is_filplus boolean [U]</text>
<text text-anchor="start" x="843.5" y="-370.3" font-family="Times,serif" font-size="14.00">&#45; claimant_id integer [U]</text>
</g>
<!-- node14&#45;&gt;node18 -->
<g id="edge27" class="edge">
<title>node14&#45;&gt;node18</title>
<path fill="none" stroke="black" d="M799.76,-867.11C772.92,-845.77 752.95,-829.02 751,-825 704.11,-728.21 679.09,-662.98 751,-583 762.21,-570.54 811.18,-582.84 826,-575 874.01,-549.61 912.54,-500.45 937.1,-462.19"/>
<polygon fill="black" stroke="black" points="940.07,-464.04 942.44,-453.71 934.15,-460.31 940.07,-464.04"/>
</g>
<!-- node16 -->
<g id="node27" class="node">
<title>node16</title>
<polygon fill="white" stroke="black" points="1116.5,-317.5 1116.5,-498.5 1423.5,-498.5 1423.5,-317.5 1116.5,-317.5"/>
<text text-anchor="middle" x="1270" y="-483.3" font-family="Times,serif" font-size="14.00">mv_pieces_availability</text>
<polyline fill="none" stroke="black" points="1116.5,-475.5 1423.5,-475.5 "/>
<text text-anchor="start" x="1124.5" y="-460.3" font-family="Times,serif" font-size="14.00">&#45; display_sort bigint</text>
<text text-anchor="start" x="1124.5" y="-445.3" font-family="Times,serif" font-size="14.00">&#45; piece_id bigint [U]</text>
<text text-anchor="start" x="1124.5" y="-430.3" font-family="Times,serif" font-size="14.00">&#45; coarse_latest_active_end_epoch integer</text>
<text text-anchor="start" x="1124.5" y="-415.3" font-family="Times,serif" font-size="14.00">&#45; piece_log2_size smallint</text>
<text text-anchor="start" x="1124.5" y="-400.3" font-family="Times,serif" font-size="14.00">&#45; requires_64g_sector boolean</text>
<text text-anchor="start" x="1124.5" y="-385.3" font-family="Times,serif" font-size="14.00">&#45; http_available boolean</text>
<text text-anchor="start" x="1124.5" y="-370.3" font-family="Times,serif" font-size="14.00">&#45; piece_cid text</text>
<text text-anchor="start" x="1124.5" y="-355.3" font-family="Times,serif" font-size="14.00">&#45; proposal_label text</text>
<text text-anchor="start" x="1124.5" y="-340.3" font-family="Times,serif" font-size="14.00">&#45; potential_tenant_ids smallint[]</text>
<text text-anchor="start" x="1124.5" y="-325.3" font-family="Times,serif" font-size="14.00">&#45; has_sources boolean</text>
</g>
<!-- node14&#45;&gt;node16 -->
<g id="edge28" class="edge">
<title>node14&#45;&gt;node16</title>
<path fill="none" stroke="black" d="M963.41,-861.35C969.46,-749.77 981.1,-602.3 1001,-583 1017.95,-566.55 1085.58,-584.95 1107,-575 1140.98,-559.21 1171.74,-533.06 1197.15,-506.14"/>
<polygon fill="black" stroke="black" points="1199.97,-508.25 1204.18,-498.53 1194.82,-503.51 1199.97,-508.25"/>
</g>
<!-- node17&#45;&gt;node18 -->
<g id="edge17" class="edge">
<title>node17&#45;&gt;node18</title>
<path fill="none" stroke="black" d="M1105.82,-583.42C1072.09,-541.03 1035.84,-495.49 1008.85,-461.58"/>
<polygon fill="black" stroke="black" points="1011.51,-459.3 1002.54,-453.65 1006.03,-463.66 1011.51,-459.3"/>
</g>
<!-- node19 -->
<g id="node17" class="node">
<title>node19</title>
<polygon fill="white" stroke="black" points="440,-129.5 440,-235.5 634,-235.5 634,-129.5 440,-129.5"/>
<text text-anchor="middle" x="537" y="-220.3" font-family="Times,serif" font-size="14.00">mv_replicas_city</text>
<polyline fill="none" stroke="black" points="440,-212.5 634,-212.5 "/>
<text text-anchor="start" x="448" y="-197.3" font-family="Times,serif" font-size="14.00">&#45; piece_id bigint [U]</text>
<text text-anchor="start" x="448" y="-182.3" font-family="Times,serif" font-size="14.00">&#45; claimant_id integer [U]</text>
<text text-anchor="start" x="448" y="-167.3" font-family="Times,serif" font-size="14.00">&#45; city_id smallint [U]</text>
<text text-anchor="start" x="448" y="-152.3" font-family="Times,serif" font-size="14.00">&#45; replicas_filplus smallint</text>
<text text-anchor="start" x="448" y="-137.3" font-family="Times,serif" font-size="14.00">&#45; replicas_any smallint</text>
</g>
<!-- node18&#45;&gt;node19 -->
<g id="edge5" class="edge">
<title>node18&#45;&gt;node19</title>
<path fill="none" stroke="black" d="M930.46,-362.47C904.16,-333.04 866.34,-295.66 826,-272 794.67,-253.62 712.71,-229.24 644.04,-210.72"/>
<polygon fill="black" stroke="black" points="644.57,-207.24 634.01,-208.03 642.76,-214 644.57,-207.24"/>
</g>
<!-- node20 -->
<g id="node18" class="node">
<title>node20</title>
<polygon fill="white" stroke="black" points="756.5,-129.5 756.5,-235.5 959.5,-235.5 959.5,-129.5 756.5,-129.5"/>
<text text-anchor="middle" x="858" y="-220.3" font-family="Times,serif" font-size="14.00">mv_replicas_continent</text>
<polyline fill="none" stroke="black" points="756.5,-212.5 959.5,-212.5 "/>
<text text-anchor="start" x="764.5" y="-197.3" font-family="Times,serif" font-size="14.00">&#45; piece_id bigint [U]</text>
<text text-anchor="start" x="764.5" y="-182.3" font-family="Times,serif" font-size="14.00">&#45; claimant_id integer [U]</text>
<text text-anchor="start" x="764.5" y="-167.3" font-family="Times,serif" font-size="14.00">&#45; continent_id smallint [U]</text>
<text text-anchor="start" x="764.5" y="-152.3" font-family="Times,serif" font-size="14.00">&#45; replicas_filplus smallint</text>
<text text-anchor="start" x="764.5" y="-137.3" font-family="Times,serif" font-size="14.00">&#45; replicas_any smallint</text>
</g>
<!-- node18&#45;&gt;node20 -->
<g id="edge6" class="edge">
<title>node18&#45;&gt;node20</title>
<path fill="none" stroke="black" d="M945.2,-362.31C928.77,-328.6 906.03,-281.99 887.9,-244.8"/>
<polygon fill="black" stroke="black" points="890.92,-243.02 883.39,-235.56 884.63,-246.08 890.92,-243.02"/>
</g>
<!-- node21 -->
<g id="node19" class="node">
<title>node21</title>
<polygon fill="white" stroke="black" points="987,-129.5 987,-235.5 1181,-235.5 1181,-129.5 987,-129.5"/>
<text text-anchor="middle" x="1084" y="-220.3" font-family="Times,serif" font-size="14.00">mv_replicas_country</text>
<polyline fill="none" stroke="black" points="987,-212.5 1181,-212.5 "/>
<text text-anchor="start" x="995" y="-197.3" font-family="Times,serif" font-size="14.00">&#45; piece_id bigint [U]</text>
<text text-anchor="start" x="995" y="-182.3" font-family="Times,serif" font-size="14.00">&#45; claimant_id integer [U]</text>
<text text-anchor="start" x="995" y="-167.3" font-family="Times,serif" font-size="14.00">&#45; country_id smallint [U]</text>
<text text-anchor="start" x="995" y="-152.3" font-family="Times,serif" font-size="14.00">&#45; replicas_filplus smallint</text>
<text text-anchor="start" x="995" y="-137.3" font-family="Times,serif" font-size="14.00">&#45; replicas_any smallint</text>
</g>
<!-- node18&#45;&gt;node21 -->
<g id="edge7" class="edge">
<title>node18&#45;&gt;node21</title>
<path fill="none" stroke="black" d="M990.4,-362.31C1008.04,-328.6 1032.44,-281.99 1051.91,-244.8"/>
<polygon fill="black" stroke="black" points="1055.21,-246.05 1056.75,-235.56 1049.01,-242.8 1055.21,-246.05"/>
</g>
<!-- node22 -->
<g id="node20" class="node">
<title>node22</title>
<polygon fill="white" stroke="black" points="1200,-129.5 1200,-235.5 1394,-235.5 1394,-129.5 1200,-129.5"/>
<text text-anchor="middle" x="1297" y="-220.3" font-family="Times,serif" font-size="14.00">mv_replicas_org</text>
<polyline fill="none" stroke="black" points="1200,-212.5 1394,-212.5 "/>
<text text-anchor="start" x="1208" y="-197.3" font-family="Times,serif" font-size="14.00">&#45; piece_id bigint [U]</text>
<text text-anchor="start" x="1208" y="-182.3" font-family="Times,serif" font-size="14.00">&#45; claimant_id integer [U]</text>
<text text-anchor="start" x="1208" y="-167.3" font-family="Times,serif" font-size="14.00">&#45; org_id smallint [U]</text>
<text text-anchor="start" x="1208" y="-152.3" font-family="Times,serif" font-size="14.00">&#45; replicas_filplus smallint</text>
<text text-anchor="start" x="1208" y="-137.3" font-family="Times,serif" font-size="14.00">&#45; replicas_any smallint</text>
</g>
<!-- node18&#45;&gt;node22 -->
<g id="edge8" class="edge">
<title>node18&#45;&gt;node22</title>
<path fill="none" stroke="black" d="M1005.93,-362.37C1032.54,-333.83 1069.81,-297.5 1108,-272 1141.1,-249.9 1153.9,-252.77 1190,-236 1190.31,-235.86 1190.62,-235.71 1190.92,-235.57"/>
<polygon fill="black" stroke="black" points="1192.41,-238.74 1199.98,-231.32 1189.44,-232.4 1192.41,-238.74"/>
</g>
<!-- node23 -->
<g id="node21" class="node">
<title>node23</title>
<polygon fill="white" stroke="black" points="340,-16.5 340,-92.5 522,-92.5 522,-16.5 340,-16.5"/>
<text text-anchor="middle" x="431" y="-77.3" font-family="Times,serif" font-size="14.00">mv_overreplicated_city</text>
<polyline fill="none" stroke="black" points="340,-69.5 522,-69.5 "/>
<text text-anchor="start" x="348" y="-54.3" font-family="Times,serif" font-size="14.00">&#45; piece_id bigint [U]</text>
<text text-anchor="start" x="348" y="-39.3" font-family="Times,serif" font-size="14.00">&#45; tenant_id smallint [U]</text>
<text text-anchor="start" x="348" y="-24.3" font-family="Times,serif" font-size="14.00">&#45; city_id smallint [U]</text>
</g>
<!-- node19&#45;&gt;node23 -->
<g id="edge9" class="edge">
<title>node19&#45;&gt;node23</title>
<path fill="none" stroke="black" d="M492.97,-129.16C484.88,-119.55 476.5,-109.59 468.63,-100.23"/>
<polygon fill="black" stroke="black" points="471.26,-97.92 462.14,-92.52 465.9,-102.42 471.26,-97.92"/>
</g>
<!-- node24 -->
<g id="node22" class="node">
<title>node24</title>
<polygon fill="white" stroke="black" points="746.5,-16.5 746.5,-92.5 969.5,-92.5 969.5,-16.5 746.5,-16.5"/>
<text text-anchor="middle" x="858" y="-77.3" font-family="Times,serif" font-size="14.00">mv_overreplicated_continent</text>
<polyline fill="none" stroke="black" points="746.5,-69.5 969.5,-69.5 "/>
<text text-anchor="start" x="754.5" y="-54.3" font-family="Times,serif" font-size="14.00">&#45; piece_id bigint [U]</text>
<text text-anchor="start" x="754.5" y="-39.3" font-family="Times,serif" font-size="14.00">&#45; tenant_id smallint [U]</text>
<text text-anchor="start" x="754.5" y="-24.3" font-family="Times,serif" font-size="14.00">&#45; continent_id smallint [U]</text>
</g>
<!-- node20&#45;&gt;node24 -->
<g id="edge10" class="edge">
<title>node20&#45;&gt;node24</title>
<path fill="none" stroke="black" d="M858,-129.16C858,-120.41 858,-111.38 858,-102.77"/>
<polygon fill="black" stroke="black" points="861.5,-102.52 858,-92.52 854.5,-102.52 861.5,-102.52"/>
</g>
<!-- node27 -->
<g id="node23" class="node">
<title>node27</title>
<polygon fill="white" stroke="black" points="540,-24 540,-85 728,-85 728,-24 540,-24"/>
<text text-anchor="middle" x="634" y="-69.8" font-family="Times,serif" font-size="14.00">mv_overreplicated_total</text>
<polyline fill="none" stroke="black" points="540,-62 728,-62 "/>
<text text-anchor="start" x="548" y="-46.8" font-family="Times,serif" font-size="14.00">&#45; piece_id bigint [U]</text>
<text text-anchor="start" x="548" y="-31.8" font-family="Times,serif" font-size="14.00">&#45; tenant_id smallint [U]</text>
</g>
<!-- node20&#45;&gt;node27 -->
<g id="edge11" class="edge">
<title>node20&#45;&gt;node27</title>
<path fill="none" stroke="black" d="M765.27,-129.34C741.68,-116.07 716.92,-102.14 695.33,-90"/>
<polygon fill="black" stroke="black" points="697.04,-86.94 686.6,-85.09 693.6,-93.04 697.04,-86.94"/>
</g>
<!-- node25 -->
<g id="node24" class="node">
<title>node25</title>
<polygon fill="white" stroke="black" points="988,-16.5 988,-92.5 1198,-92.5 1198,-16.5 988,-16.5"/>
<text text-anchor="middle" x="1093" y="-77.3" font-family="Times,serif" font-size="14.00">mv_overreplicated_country</text>
<polyline fill="none" stroke="black" points="988,-69.5 1198,-69.5 "/>
<text text-anchor="start" x="996" y="-54.3" font-family="Times,serif" font-size="14.00">&#45; piece_id bigint [U]</text>
<text text-anchor="start" x="996" y="-39.3" font-family="Times,serif" font-size="14.00">&#45; tenant_id smallint [U]</text>
<text text-anchor="start" x="996" y="-24.3" font-family="Times,serif" font-size="14.00">&#45; country_id smallint [U]</text>
</g>
<!-- node21&#45;&gt;node25 -->
<g id="edge12" class="edge">
<title>node21&#45;&gt;node25</title>
<path fill="none" stroke="black" d="M1087.74,-129.16C1088.36,-120.41 1089.01,-111.38 1089.62,-102.77"/>
<polygon fill="black" stroke="black" points="1093.13,-102.74 1090.36,-92.52 1086.15,-102.24 1093.13,-102.74"/>
</g>
<!-- node26 -->
<g id="node25" class="node">
<title>node26</title>
<polygon fill="white" stroke="black" points="1216,-16.5 1216,-92.5 1398,-92.5 1398,-16.5 1216,-16.5"/>
<text text-anchor="middle" x="1307" y="-77.3" font-family="Times,serif" font-size="14.00">mv_overreplicated_org</text>
<polyline fill="none" stroke="black" points="1216,-69.5 1398,-69.5 "/>
<text text-anchor="start" x="1224" y="-54.3" font-family="Times,serif" font-size="14.00">&#45; piece_id bigint [U]</text>
<text text-anchor="start" x="1224" y="-39.3" font-family="Times,serif" font-size="14.00">&#45; tenant_id smallint [U]</text>
<text text-anchor="start" x="1224" y="-24.3" font-family="Times,serif" font-size="14.00">&#45; org_id smallint [U]</text>
</g>
<!-- node22&#45;&gt;node26 -->
<g id="edge13" class="edge">
<title>node22&#45;&gt;node26</title>
<path fill="none" stroke="black" d="M1301.15,-129.16C1301.85,-120.41 1302.57,-111.38 1303.25,-102.77"/>
<polygon fill="black" stroke="black" points="1306.76,-102.76 1304.06,-92.52 1299.78,-102.21 1306.76,-102.76"/>
</g>
<!-- node28 -->
<g id="node28" class="node">
<title>node28</title>
<polygon fill="white" stroke="black" points="620.5,-362.5 620.5,-453.5 817.5,-453.5 817.5,-362.5 620.5,-362.5"/>
<text text-anchor="middle" x="719" y="-438.3" font-family="Times,serif" font-size="14.00">clients_datacap_available</text>
<polyline fill="none" stroke="black" points="620.5,-430.5 817.5,-430.5 "/>
<text text-anchor="start" x="628.5" y="-415.3" font-family="Times,serif" font-size="14.00">&#45; client_id</text>
<text text-anchor="start" x="628.5" y="-400.3" font-family="Times,serif" font-size="14.00">&#45; client_address</text>
<text text-anchor="start" x="628.5" y="-385.3" font-family="Times,serif" font-size="14.00">&#45; tenant_id</text>
<text text-anchor="start" x="628.5" y="-370.3" font-family="Times,serif" font-size="14.00">&#45; datacap_available</text>
</g>
<!-- node29 -->
<g id="node29" class="node">
<title>node29</title>
<polygon fill="white" stroke="black" points="438,-317.5 438,-498.5 602,-498.5 602,-317.5 438,-317.5"/>
<text text-anchor="middle" x="520" y="-483.3" font-family="Times,serif" font-size="14.00">known_deals_ranked</text>
<polyline fill="none" stroke="black" points="438,-475.5 602,-475.5 "/>
<text text-anchor="start" x="446" y="-460.3" font-family="Times,serif" font-size="14.00">&#45; intra_sp_rank</text>
<text text-anchor="start" x="446" y="-445.3" font-family="Times,serif" font-size="14.00">&#45; deal_id</text>
<text text-anchor="start" x="446" y="-430.3" font-family="Times,serif" font-size="14.00">&#45; piece_id</text>
<text text-anchor="start" x="446" y="-415.3" font-family="Times,serif" font-size="14.00">&#45; provider_id</text>
<text text-anchor="start" x="446" y="-400.3" font-family="Times,serif" font-size="14.00">&#45; client_id</text>
<text text-anchor="start" x="446" y="-385.3" font-family="Times,serif" font-size="14.00">&#45; end_epoch</text>
<text text-anchor="start" x="446" y="-370.3" font-family="Times,serif" font-size="14.00">&#45; state</text>
<text text-anchor="start" x="446" y="-355.3" font-family="Times,serif" font-size="14.00">&#45; is_filplus</text>
<text text-anchor="start" x="446" y="-340.3" font-family="Times,serif" font-size="14.00">&#45; proposal_label</text>
<text text-anchor="start" x="446" y="-325.3" font-family="Times,serif" font-size="14.00">&#45; claimant_ids</text>
</g>
<!-- node30 -->
<g id="node30" class="node">
<title>node30</title>
<polygon fill="white" stroke="black" points="210,-340 210,-476 420,-476 420,-340 210,-340"/>
<text text-anchor="middle" x="315" y="-460.8" font-family="Times,serif" font-size="14.00">known_fildag_deals_ranked</text>
<polyline fill="none" stroke="black" points="210,-453 420,-453 "/>
<text text-anchor="start" x="218" y="-437.8" font-family="Times,serif" font-size="14.00">&#45; piece_id</text>
<text text-anchor="start" x="218" y="-422.8" font-family="Times,serif" font-size="14.00">&#45; deal_id</text>
<text text-anchor="start" x="218" y="-407.8" font-family="Times,serif" font-size="14.00">&#45; end_epoch</text>
<text text-anchor="start" x="218" y="-392.8" font-family="Times,serif" font-size="14.00">&#45; provider_id</text>
<text text-anchor="start" x="218" y="-377.8" font-family="Times,serif" font-size="14.00">&#45; is_filplus</text>
<text text-anchor="start" x="218" y="-362.8" font-family="Times,serif" font-size="14.00">&#45; proposal_label</text>
<text text-anchor="start" x="218" y="-347.8" font-family="Times,serif" font-size="14.00">&#45; rank</text>
</g>
<!-- node31 -->
<g id="node31" class="node">
<title>node31</title>
<polygon fill="white" stroke="black" points="16,-272.5 16,-543.5 192,-543.5 192,-272.5 16,-272.5"/>
<text text-anchor="middle" x="104" y="-528.3" font-family="Times,serif" font-size="14.00">known_missized_deals</text>
<polyline fill="none" stroke="black" points="16,-520.5 192,-520.5 "/>
<text text-anchor="start" x="24" y="-505.3" font-family="Times,serif" font-size="14.00">&#45; deal_id</text>
<text text-anchor="start" x="24" y="-490.3" font-family="Times,serif" font-size="14.00">&#45; piece_id</text>
<text text-anchor="start" x="24" y="-475.3" font-family="Times,serif" font-size="14.00">&#45; piece_cid</text>
<text text-anchor="start" x="24" y="-460.3" font-family="Times,serif" font-size="14.00">&#45; claimed_log2_size</text>
<text text-anchor="start" x="24" y="-445.3" font-family="Times,serif" font-size="14.00">&#45; provider_id</text>
<text text-anchor="start" x="24" y="-430.3" font-family="Times,serif" font-size="14.00">&#45; client_id</text>
<text text-anchor="start" x="24" y="-415.3" font-family="Times,serif" font-size="14.00">&#45; label</text>
<text text-anchor="start" x="24" y="-400.3" font-family="Times,serif" font-size="14.00">&#45; decoded_label</text>
<text text-anchor="start" x="24" y="-385.3" font-family="Times,serif" font-size="14.00">&#45; is_filplus</text>
<text text-anchor="start" x="24" y="-370.3" font-family="Times,serif" font-size="14.00">&#45; status</text>
<text text-anchor="start" x="24" y="-355.3" font-family="Times,serif" font-size="14.00">&#45; published_deal_meta</text>
<text text-anchor="start" x="24" y="-340.3" font-family="Times,serif" font-size="14.00">&#45; start_epoch</text>
<text text-anchor="start" x="24" y="-325.3" font-family="Times,serif" font-size="14.00">&#45; end_epoch</text>
<text text-anchor="start" x="24" y="-310.3" font-family="Times,serif" font-size="14.00">&#45; sector_start_epoch</text>
<text text-anchor="start" x="24" y="-295.3" font-family="Times,serif" font-size="14.00">&#45; entry_created</text>
<text text-anchor="start" x="24" y="-280.3" font-family="Times,serif" font-size="14.00">&#45; proven_log2_size</text>
</g>
</g>
</svg>
